<svg width="171" height="54" viewBox="0 0 171 54" fill="none" xmlns="http://www.w3.org/2000/svg">
<rect width="171" height="54" rx="27" fill="white"/>
<g clip-path="url(#clip0_1355_487)">
<path d="M75.9228 27.011C75.5852 26.7805 75.1538 26.6653 74.6324 26.6653C74.4186 26.6653 74.2123 26.6839 74.0059 26.7248C73.7996 26.7657 73.6196 26.8326 73.4583 26.9255C73.297 27.0184 73.1694 27.1448 73.0756 27.301C72.9781 27.4571 72.9331 27.6541 72.9331 27.8883C72.9331 28.1077 73.0006 28.2898 73.1394 28.4274C73.2782 28.5649 73.462 28.6764 73.6908 28.7619C73.9197 28.8474 74.1823 28.9218 74.4711 28.9775C74.7599 29.0333 75.0563 29.0965 75.3564 29.1634C75.6565 29.2303 75.9528 29.3084 76.2454 29.3976C76.5343 29.4868 76.7969 29.6095 77.0257 29.7619C77.2545 29.9181 77.4421 30.1114 77.5771 30.3456C77.7159 30.5798 77.7834 30.8735 77.7834 31.2303C77.7834 31.6132 77.6934 31.9367 77.5134 32.208C77.3333 32.4794 77.1007 32.6987 76.8156 32.8697C76.5305 33.0407 76.2154 33.1634 75.8628 33.2415C75.5139 33.3196 75.1651 33.3567 74.8162 33.3567C74.3923 33.3567 73.9872 33.3084 73.6121 33.208C73.2332 33.1077 72.8993 32.9552 72.6105 32.7508C72.3254 32.5463 72.0966 32.2861 71.9315 31.9664C71.7665 31.6504 71.6802 31.2712 71.6802 30.8363H72.6367C72.6367 31.1374 72.7005 31.3976 72.8243 31.6132C72.9481 31.8288 73.1132 32.011 73.312 32.1486C73.5145 32.2898 73.7509 32.3939 74.0172 32.4608C74.2873 32.5277 74.5611 32.5612 74.8462 32.5612C75.0751 32.5612 75.3001 32.5426 75.5327 32.5017C75.7615 32.4608 75.9716 32.3939 76.1554 32.2972C76.3392 32.2006 76.4893 32.0668 76.6018 31.8995C76.7143 31.7322 76.7706 31.5203 76.7706 31.2564C76.7706 30.9924 76.7031 30.8065 76.5643 30.6541C76.4255 30.5017 76.2417 30.3753 76.0129 30.2787C75.784 30.182 75.5214 30.1039 75.2326 30.0445C74.94 29.985 74.6474 29.9218 74.3436 29.8586C74.0435 29.7954 73.7471 29.721 73.4545 29.6393C73.1657 29.5575 72.9031 29.4459 72.6743 29.3084C72.4454 29.1709 72.2579 28.9924 72.1228 28.7768C71.984 28.5612 71.9165 28.2861 71.9165 27.959C71.9165 27.5984 71.9953 27.2861 72.1491 27.0222C72.3066 26.7582 72.513 26.5426 72.7718 26.3716C73.0306 26.2006 73.3232 26.0742 73.6533 25.9887C73.9834 25.9069 74.3211 25.8623 74.6699 25.8623C75.06 25.8623 75.4202 25.9069 75.754 25.9924C76.0879 26.0779 76.3805 26.2155 76.6318 26.4051C76.8831 26.5909 77.082 26.8288 77.2283 27.1114C77.3746 27.3939 77.4533 27.7359 77.4683 28.13H76.5118C76.4555 27.6132 76.2567 27.2415 75.9228 27.011Z" fill="#00A9E0"/>
<path d="M82.7505 32.8623C82.3379 33.156 81.8202 33.3047 81.1975 33.3047C80.7586 33.3047 80.376 33.2378 80.0534 33.104C79.7308 32.9702 79.4607 32.7843 79.2394 32.5426C79.0218 32.301 78.8567 32.0148 78.7442 31.6802C78.6354 31.3456 78.5716 30.9813 78.5566 30.5873C78.5566 30.1932 78.6204 29.8326 78.748 29.5055C78.8755 29.1783 79.0556 28.8921 79.2844 28.6542C79.5132 28.4125 79.787 28.2267 80.1022 28.0928C80.4173 27.959 80.7624 27.8921 81.1375 27.8921C81.6252 27.8921 82.034 27.9887 82.3529 28.1783C82.6755 28.3679 82.9343 28.6133 83.1294 28.907C83.3245 29.2006 83.4595 29.5203 83.5345 29.8698C83.6096 30.2155 83.6396 30.5501 83.6246 30.8623H79.5095C79.502 31.0891 79.532 31.3047 79.5957 31.5092C79.6595 31.7137 79.7608 31.8958 79.9033 32.0519C80.0459 32.2081 80.2259 32.3345 80.4435 32.4274C80.6648 32.5203 80.9199 32.5687 81.22 32.5687C81.6026 32.5687 81.9178 32.4869 82.1616 32.3196C82.4054 32.1523 82.5667 31.8995 82.6455 31.5575H83.5383C83.4182 32.1412 83.1519 32.5761 82.7393 32.8735M82.5217 29.5426C82.4392 29.3605 82.3304 29.2081 82.1916 29.078C82.0528 28.9479 81.8915 28.8438 81.7039 28.7657C81.5164 28.6876 81.3101 28.6505 81.0812 28.6505C80.8524 28.6505 80.6386 28.6876 80.451 28.7657C80.2635 28.8438 80.1021 28.9479 79.9671 29.0817C79.8321 29.2155 79.727 29.3716 79.6483 29.5464C79.5695 29.7248 79.5245 29.9144 79.5095 30.1151H82.668C82.653 29.9144 82.6042 29.7248 82.5255 29.5426" fill="#00A9E0"/>
<path d="M88.6962 34.6581C88.2835 35.0782 87.6383 35.2901 86.7605 35.2901C86.5054 35.2901 86.2466 35.2641 85.9803 35.2083C85.7139 35.1562 85.4738 35.067 85.2563 34.9481C85.0387 34.8254 84.8624 34.6693 84.7198 34.476C84.5773 34.2826 84.4985 34.0447 84.4873 33.7622H85.3913C85.3988 33.9146 85.4513 34.0447 85.5451 34.1525C85.6426 34.2603 85.7589 34.3458 85.894 34.4128C86.0328 34.4797 86.1828 34.528 86.3441 34.5577C86.5054 34.5875 86.663 34.6023 86.813 34.6023C87.1094 34.6023 87.3607 34.554 87.567 34.4574C87.7733 34.3607 87.9422 34.2269 88.0772 34.0559C88.2122 33.8849 88.3098 33.6804 88.3698 33.4388C88.4298 33.1971 88.4598 32.9332 88.4598 32.647V32.305H88.4373C88.2798 32.6247 88.0472 32.8626 87.7321 33.0113C87.417 33.1637 87.0831 33.238 86.7268 33.238C86.3141 33.238 85.9577 33.1674 85.6539 33.0261C85.35 32.8849 85.095 32.6953 84.8886 32.4611C84.6823 32.2269 84.5285 31.9444 84.4272 31.6284C84.326 31.3087 84.2734 30.9741 84.2734 30.6209C84.2734 30.3124 84.3147 29.9964 84.401 29.673C84.4873 29.3496 84.6261 29.0559 84.8249 28.7882C85.0237 28.5243 85.2863 28.305 85.6126 28.1339C85.939 27.9629 86.3404 27.8774 86.813 27.8774C87.1581 27.8774 87.477 27.9481 87.7696 28.0931C88.0584 28.238 88.2873 28.4536 88.4523 28.7399H88.4636V27.9964H89.3151V32.7399C89.3151 33.5912 89.1088 34.2269 88.6999 34.647M87.5483 32.3124C87.7583 32.1971 87.9271 32.041 88.0547 31.8514C88.1822 31.6618 88.276 31.4462 88.336 31.2046C88.3961 30.9629 88.4261 30.7213 88.4261 30.4834C88.4261 30.2566 88.3961 30.0336 88.3398 29.8105C88.2835 29.5875 88.1935 29.3905 88.0697 29.212C87.9459 29.0336 87.7846 28.8923 87.5858 28.7845C87.387 28.6767 87.1469 28.6247 86.8618 28.6247C86.5767 28.6247 86.3216 28.6767 86.119 28.7808C85.9127 28.8849 85.7439 29.0224 85.6126 29.1971C85.4813 29.3719 85.3838 29.5726 85.3238 29.7994C85.2638 30.0261 85.2338 30.2641 85.2338 30.5131C85.2338 30.7473 85.26 30.9815 85.3088 31.2157C85.3575 31.4499 85.4438 31.6618 85.5639 31.8514C85.6839 32.041 85.8452 32.1971 86.044 32.3124C86.2428 32.4313 86.4904 32.4871 86.7868 32.4871C87.0831 32.4871 87.3382 32.4276 87.5483 32.3124Z" fill="#00A9E0"/>
<path d="M94.3714 33.1932V32.3716H94.3489C94.1576 32.6913 93.9138 32.9293 93.6137 33.078C93.3173 33.2267 92.9647 33.3047 92.5633 33.3047C92.2032 33.3047 91.8994 33.2601 91.6593 33.1709C91.4192 33.0817 91.2241 32.9516 91.0741 32.7843C90.924 32.617 90.819 32.42 90.759 32.1858C90.699 31.9553 90.6689 31.6988 90.6689 31.42V28.0073H91.573V31.5203C91.573 31.84 91.6705 32.0965 91.8693 32.2824C92.0682 32.4683 92.342 32.5649 92.6871 32.5649C92.9647 32.5649 93.201 32.5241 93.4036 32.446C93.6062 32.3642 93.775 32.2527 93.91 32.104C94.0451 31.9553 94.1463 31.7843 94.2139 31.5872C94.2814 31.3902 94.3152 31.1746 94.3152 30.9404V28.011H95.2192V33.1969H94.3677L94.3714 33.1932Z" fill="#00A9E0"/>
<path d="M97.3991 28.0074V29.1003H97.4216C97.6429 28.6802 97.9092 28.368 98.2281 28.1672C98.5469 27.9665 98.9521 27.8735 99.4397 27.8847V28.788C99.0796 28.788 98.772 28.8364 98.5169 28.9293C98.2618 29.0222 98.0555 29.1598 97.9017 29.3419C97.7442 29.5204 97.6316 29.7397 97.5604 29.9999C97.4891 30.2564 97.4553 30.5538 97.4553 30.8884V33.197H96.5513V28.0111H97.4028L97.3991 28.0074Z" fill="#00A9E0"/>
<path d="M99.8036 29.5353C99.9161 29.2045 100.089 28.9182 100.314 28.6729C100.539 28.4275 100.82 28.2379 101.154 28.0967C101.488 27.9554 101.871 27.8848 102.302 27.8848C102.733 27.8848 103.127 27.9554 103.454 28.0967C103.784 28.2379 104.061 28.4312 104.29 28.6729C104.515 28.9182 104.688 29.2045 104.8 29.5353C104.913 29.8662 104.969 30.2231 104.969 30.606C104.969 30.9889 104.913 31.342 104.8 31.6692C104.688 31.9963 104.515 32.2825 104.29 32.5279C104.061 32.7732 103.784 32.9628 103.454 33.1004C103.123 33.2379 102.741 33.3048 102.302 33.3048C101.863 33.3048 101.488 33.2342 101.154 33.1004C100.82 32.9628 100.543 32.7732 100.314 32.5279C100.085 32.2825 99.9161 31.9963 99.8036 31.6692C99.691 31.342 99.6348 30.9851 99.6348 30.606C99.6348 30.2268 99.691 29.8699 99.8036 29.5353ZM100.723 31.4424C100.809 31.6877 100.933 31.8922 101.09 32.0558C101.244 32.2193 101.428 32.3457 101.638 32.4312C101.848 32.5167 102.069 32.5613 102.302 32.5613C102.534 32.5613 102.756 32.5167 102.966 32.4312C103.176 32.3457 103.356 32.2193 103.514 32.0558C103.671 31.8922 103.791 31.6877 103.881 31.4424C103.971 31.197 104.016 30.9182 104.016 30.606C104.016 30.2937 103.971 30.0112 103.881 29.7695C103.791 29.5242 103.671 29.3197 103.514 29.1524C103.356 28.9851 103.176 28.8587 102.966 28.7732C102.756 28.6877 102.534 28.6431 102.302 28.6431C102.069 28.6431 101.848 28.6877 101.638 28.7732C101.428 28.8587 101.248 28.9889 101.09 29.1524C100.933 29.3197 100.813 29.5242 100.723 29.7695C100.633 30.0149 100.591 30.2937 100.591 30.606C100.591 30.9182 100.636 31.2007 100.723 31.4424Z" fill="#00A9E0"/>
<path d="M106.725 32.0374C106.811 32.1675 106.92 32.2716 107.058 32.3496C107.197 32.4277 107.351 32.4835 107.527 32.5132C107.7 32.5467 107.88 32.5653 108.064 32.5653C108.206 32.5653 108.353 32.5541 108.51 32.5355C108.668 32.5132 108.81 32.4798 108.942 32.424C109.073 32.3719 109.182 32.2939 109.264 32.1898C109.35 32.0857 109.392 31.9556 109.392 31.792C109.392 31.5727 109.302 31.4054 109.125 31.2902C108.949 31.1786 108.728 31.0857 108.461 31.0151C108.195 30.9444 107.906 30.8812 107.595 30.8255C107.284 30.7697 106.995 30.6879 106.728 30.5838C106.462 30.4797 106.241 30.3348 106.064 30.1489C105.888 29.963 105.798 29.6991 105.798 29.3645C105.798 29.1043 105.862 28.8812 105.986 28.6916C106.109 28.5058 106.271 28.3534 106.466 28.2344C106.661 28.1192 106.878 28.0299 107.126 27.9742C107.37 27.9184 107.614 27.8887 107.854 27.8887C108.165 27.8887 108.454 27.9147 108.717 27.963C108.979 28.0113 109.212 28.1006 109.414 28.2232C109.617 28.3459 109.778 28.5132 109.898 28.7251C110.018 28.937 110.089 29.1972 110.112 29.5132H109.208C109.193 29.3459 109.148 29.2084 109.069 29.0969C108.99 28.9853 108.893 28.8961 108.773 28.8292C108.653 28.7623 108.521 28.714 108.375 28.6842C108.229 28.6545 108.083 28.6396 107.933 28.6396C107.797 28.6396 107.662 28.6508 107.524 28.6693C107.385 28.6879 107.261 28.7251 107.145 28.7734C107.032 28.8218 106.938 28.8924 106.867 28.9742C106.796 29.0597 106.762 29.1675 106.762 29.3013C106.762 29.45 106.818 29.569 106.927 29.6656C107.036 29.7623 107.179 29.8441 107.347 29.9073C107.516 29.9705 107.707 30.0262 107.921 30.0671C108.135 30.1117 108.345 30.1563 108.559 30.2009C108.784 30.2493 109.005 30.305 109.223 30.3719C109.441 30.4389 109.628 30.5281 109.797 30.6396C109.962 30.7511 110.097 30.8887 110.202 31.056C110.303 31.2232 110.356 31.4314 110.356 31.6768C110.356 31.9928 110.288 32.253 110.149 32.4574C110.011 32.6656 109.831 32.8329 109.609 32.9593C109.384 33.0857 109.133 33.1749 108.855 33.227C108.574 33.2753 108.296 33.3013 108.023 33.3013C107.719 33.3013 107.426 33.2716 107.152 33.2121C106.875 33.1526 106.631 33.0522 106.421 32.9147C106.207 32.7771 106.038 32.5987 105.911 32.3719C105.783 32.1489 105.712 31.8738 105.697 31.5541H106.601C106.608 31.7437 106.653 31.8998 106.74 32.0299" fill="#00A9E0"/>
<path d="M79.4529 13.8587C79.2804 13.5799 79.0666 13.3346 78.8115 13.1227C78.5564 12.9108 78.2638 12.7472 77.9412 12.632C77.6186 12.513 77.2772 12.4572 76.9246 12.4572C76.2756 12.4572 75.7279 12.5836 75.274 12.8364C74.8239 13.0892 74.4563 13.4312 74.1749 13.8587C73.8936 14.2862 73.691 14.7732 73.5597 15.3197C73.4322 15.8662 73.3684 16.4275 73.3684 17.0112C73.3684 17.5948 73.4322 18.1115 73.5597 18.6394C73.6873 19.1673 73.8936 19.6394 74.1749 20.0632C74.4563 20.4833 74.8239 20.8216 75.274 21.0781C75.7279 21.3309 76.2756 21.461 76.9246 21.461C77.8061 21.461 78.4926 21.1896 78.9878 20.6431C79.4829 20.0967 79.783 19.3792 79.8956 18.487H82.6827C82.6077 19.316 82.4202 20.0669 82.1126 20.7361C81.8087 21.4052 81.4036 21.9777 80.9009 22.4461C80.3982 22.9182 79.813 23.2751 79.1416 23.5242C78.4701 23.7732 77.7311 23.8959 76.9246 23.8959C75.923 23.8959 75.019 23.7212 74.2199 23.3643C73.4209 23.0112 72.7457 22.5242 72.1943 21.9033C71.6428 21.2825 71.2227 20.5539 70.9301 19.7175C70.6375 18.881 70.4912 17.9777 70.4912 17.0112C70.4912 16.0446 70.6375 15.1004 70.9301 14.2491C71.2227 13.4015 71.6466 12.658 72.1943 12.026C72.742 11.3941 73.4172 10.8996 74.2199 10.539C75.019 10.1784 75.9193 10 76.9208 10C77.6411 10 78.3238 10.1041 78.9653 10.316C79.6067 10.5279 80.1807 10.8327 80.6908 11.2379C81.1973 11.6394 81.6174 12.1413 81.9475 12.7361C82.2776 13.3309 82.4839 14.0112 82.5702 14.7807H79.783C79.7343 14.4461 79.6255 14.1375 79.4529 13.8587Z" fill="#003DA5"/>
<path d="M86.4718 13.9814V15.7658H86.5093C86.6293 15.4684 86.7944 15.1933 87.0044 14.9368C87.2108 14.684 87.4508 14.4647 87.7172 14.2862C87.9873 14.1078 88.2724 13.9665 88.58 13.8699C88.8838 13.7695 89.2027 13.7212 89.5328 13.7212C89.7053 13.7212 89.8929 13.7509 90.0992 13.8141V16.2677C89.9754 16.2416 89.8291 16.2231 89.6603 16.2045C89.4878 16.1859 89.3265 16.1747 89.1652 16.1747C88.6887 16.1747 88.2836 16.2565 87.9535 16.4164C87.6234 16.5762 87.3571 16.7955 87.1545 17.0744C86.9519 17.3532 86.8094 17.6803 86.7231 18.052C86.6368 18.4238 86.5956 18.8253 86.5956 19.2602V23.5911H83.9922V13.9814H86.468H86.4718Z" fill="#003DA5"/>
<path d="M93.2162 21.2864C93.6063 21.673 94.169 21.8626 94.9042 21.8626C95.4294 21.8626 95.8833 21.7287 96.2622 21.4611C96.6411 21.1934 96.8736 20.9109 96.9599 20.6172H99.2519C98.8843 21.7696 98.3216 22.5949 97.5639 23.0893C96.8061 23.5875 95.8908 23.8328 94.8142 23.8328C94.0677 23.8328 93.3962 23.7139 92.7998 23.4685C92.1996 23.2269 91.6932 22.8812 91.2768 22.4351C90.8604 21.989 90.5415 21.4574 90.3127 20.8365C90.0876 20.2157 89.9751 19.5354 89.9751 18.7919C89.9751 18.0484 90.0914 17.4053 90.324 16.7845C90.5565 16.1637 90.8866 15.6284 91.3143 15.1748C91.7419 14.7213 92.2521 14.3644 92.8448 14.1042C93.4375 13.844 94.094 13.7139 94.8142 13.7139C95.6207 13.7139 96.3222 13.8737 96.9224 14.186C97.5226 14.502 98.014 14.9258 98.3966 15.4611C98.783 15.9927 99.0606 16.6023 99.2294 17.2826C99.402 17.9629 99.462 18.6767 99.4132 19.4202H92.5747C92.6122 20.2752 92.826 20.896 93.2162 21.2789M96.1571 16.2194C95.8458 15.8737 95.3731 15.699 94.7354 15.699C94.319 15.699 93.9739 15.7696 93.7001 15.9146C93.4262 16.0596 93.2049 16.2343 93.0399 16.4425C92.8748 16.6544 92.7585 16.8774 92.691 17.1116C92.6235 17.3458 92.5822 17.5577 92.571 17.7436H96.8061C96.6823 17.0745 96.4685 16.5652 96.1571 16.2194Z" fill="#003DA5"/>
<path d="M105.112 15.7101C104.695 15.7101 104.346 15.8068 104.069 15.9964C103.787 16.1897 103.559 16.4351 103.382 16.7399C103.206 17.0447 103.078 17.3793 103.007 17.7436C102.932 18.1079 102.898 18.4722 102.898 18.8328C102.898 19.1934 102.936 19.5317 103.007 19.8923C103.078 20.2529 103.198 20.5763 103.363 20.87C103.528 21.16 103.75 21.4016 104.031 21.5875C104.313 21.7733 104.654 21.8663 105.059 21.8663C105.682 21.8663 106.162 21.6878 106.499 21.3347C106.837 20.9815 107.047 20.5057 107.133 19.9109H109.643C109.47 21.186 108.983 22.16 108.176 22.8291C107.37 23.4983 106.338 23.8328 105.078 23.8328C104.369 23.8328 103.72 23.7139 103.127 23.4722C102.534 23.2306 102.032 22.8923 101.615 22.4574C101.199 22.0224 100.876 21.5057 100.644 20.9035C100.411 20.3012 100.295 19.6432 100.295 18.922C100.295 18.2009 100.4 17.4871 100.614 16.8477C100.828 16.2083 101.143 15.6581 101.559 15.1934C101.975 14.7287 102.482 14.3644 103.078 14.1042C103.679 13.844 104.361 13.7139 105.13 13.7139C105.693 13.7139 106.233 13.7882 106.751 13.9369C107.272 14.0856 107.734 14.3124 108.143 14.6172C108.551 14.922 108.885 15.2975 109.14 15.751C109.395 16.2046 109.545 16.7399 109.579 17.3607H107.032C106.86 16.2566 106.218 15.7064 105.108 15.7064" fill="#003DA5"/>
<path d="M113.526 21.2864C113.916 21.673 114.478 21.8626 115.21 21.8626C115.735 21.8626 116.189 21.7287 116.568 21.4611C116.947 21.1934 117.179 20.9109 117.266 20.6172H119.558C119.19 21.7696 118.631 22.5949 117.873 23.0893C117.116 23.5875 116.2 23.8328 115.124 23.8328C114.377 23.8328 113.706 23.7139 113.105 23.4685C112.505 23.2269 111.999 22.8812 111.582 22.4351C111.166 21.989 110.847 21.4574 110.618 20.8365C110.393 20.2157 110.281 19.5354 110.281 18.7919C110.281 18.0484 110.397 17.4053 110.63 16.7845C110.862 16.1637 111.192 15.6284 111.62 15.1748C112.048 14.7213 112.558 14.3644 113.15 14.1042C113.743 13.844 114.4 13.7139 115.12 13.7139C115.926 13.7139 116.628 13.8737 117.228 14.186C117.828 14.502 118.32 14.9258 118.702 15.4611C119.089 15.9927 119.366 16.6023 119.535 17.2826C119.708 17.9629 119.768 18.6767 119.719 19.4202H112.88C112.918 20.2752 113.132 20.896 113.522 21.2789M116.463 16.2194C116.151 15.8737 115.679 15.699 115.041 15.699C114.625 15.699 114.28 15.7696 114.006 15.9146C113.732 16.0559 113.511 16.2343 113.346 16.4425C113.18 16.6544 113.064 16.8774 112.997 17.1116C112.929 17.3458 112.888 17.5577 112.877 17.7436H117.112C116.988 17.0745 116.774 16.5652 116.463 16.2194Z" fill="#003DA5"/>
<path d="M123.369 13.9814V15.7658H123.407C123.527 15.4684 123.692 15.1933 123.902 14.9368C124.108 14.684 124.348 14.4647 124.614 14.2862C124.885 14.1078 125.17 13.9665 125.477 13.8699C125.785 13.7695 126.1 13.7212 126.43 13.7212C126.603 13.7212 126.79 13.7509 127 13.8141V16.2677C126.876 16.2416 126.73 16.2231 126.561 16.2045C126.389 16.1859 126.224 16.1747 126.066 16.1747C125.59 16.1747 125.185 16.2565 124.855 16.4164C124.524 16.5762 124.258 16.7955 124.059 17.0744C123.857 17.3532 123.714 17.6803 123.628 18.052C123.542 18.4238 123.5 18.8253 123.5 19.2602V23.5911H120.897V13.9814H123.373H123.369Z" fill="#003DA5"/>
<path d="M44 21.6543C44 15.2193 49.2667 10 55.7601 10C62.2535 10 67.5203 15.2193 67.5203 21.6543C67.5203 28.0892 62.2573 33.3086 55.7601 33.3086C49.263 33.3086 44 28.0892 44 21.6543Z" fill="#00A9E0"/>
<path d="M54.8037 26.7548C54.8975 25.1711 54.92 22.9667 54.92 21.6656C54.92 20.3644 54.8975 18.1042 54.8 16.5169C52.5718 16.9964 50.895 19.1079 50.895 21.6358C50.895 24.1637 52.5755 26.2789 54.8037 26.7548ZM56.7506 27.3421C56.7919 27.8923 56.8407 28.2566 56.9495 28.4276C57.2421 28.8886 58.0936 28.8328 58.0936 28.8328V29.0447C57.0432 29.0931 56.7094 28.9258 55.7566 28.9518C54.8037 28.9258 54.4661 29.0931 53.4195 29.0447V28.8328C53.4195 28.8328 54.2711 28.8886 54.5637 28.4276C54.6725 28.2566 54.7212 27.8886 54.7625 27.3421C51.5252 26.9295 49.0381 24.5243 49.0381 21.6209C49.0381 18.7176 51.5214 16.3161 54.755 15.9035C54.7137 15.3905 54.6649 15.0485 54.5599 14.8849C54.2673 14.4239 53.4158 14.4797 53.4158 14.4797V14.2715C54.4624 14.2232 54.8 14.3905 55.7528 14.3682C56.7056 14.3905 57.0432 14.2269 58.0898 14.2715V14.4797C58.0898 14.4797 57.2383 14.4239 56.9457 14.8849C56.8407 15.0485 56.7919 15.3905 56.7506 15.9035C59.988 16.3198 62.4713 18.7213 62.4713 21.6247C62.4713 24.528 59.9842 26.9332 56.7431 27.3459M56.5856 21.6693C56.5856 22.9741 56.6081 25.1749 56.7019 26.7622C58.9339 26.2864 60.6144 24.1749 60.6144 21.6433C60.6144 19.1117 58.9339 17.0001 56.7019 16.5243C56.6043 18.1117 56.5818 20.357 56.5818 21.673" fill="white"/>
<path d="M74.2839 42.8626V39.7474L72.8884 42.1563H72.6671L71.2679 39.7474V42.8626H70.8965V39.0708H71.2754L72.7759 41.6656L74.2726 39.0708H74.6552V42.8626H74.2839Z" fill="#003DA5"/>
<path d="M76.2756 42.9146C76.133 42.9146 76.0018 42.8923 75.8817 42.8476C75.7617 42.803 75.6604 42.7398 75.5779 42.6655C75.4916 42.5874 75.4278 42.4945 75.3828 42.3941C75.3378 42.29 75.3115 42.1822 75.3115 42.067C75.3115 41.9369 75.3415 41.8216 75.3978 41.7175C75.4541 41.6134 75.5366 41.5242 75.6416 41.4499C75.7467 41.3755 75.8705 41.316 76.0168 41.2752C76.1631 41.2343 76.3244 41.212 76.5007 41.212C76.6395 41.212 76.7858 41.2231 76.9321 41.2491C77.0784 41.2752 77.2097 41.3086 77.3259 41.3569V41.1079C77.3259 40.8625 77.2547 40.6655 77.1121 40.5242C76.9696 40.3792 76.7783 40.3086 76.5382 40.3086C76.3881 40.3086 76.2381 40.3384 76.088 40.3941C75.938 40.4499 75.7879 40.5317 75.6341 40.6395L75.5066 40.3978C75.6904 40.2752 75.8667 40.1859 76.0393 40.1265C76.2118 40.067 76.3919 40.0372 76.5757 40.0372C76.9171 40.0372 77.1871 40.1339 77.3897 40.3309C77.5923 40.5279 77.6898 40.7993 77.6898 41.1413V42.3978C77.6898 42.4982 77.7311 42.5465 77.8174 42.5465V42.8662C77.7873 42.8662 77.7611 42.8737 77.7386 42.8737C77.7123 42.8737 77.6936 42.8737 77.6748 42.8737C77.6035 42.8737 77.536 42.8514 77.4797 42.8105C77.4197 42.7659 77.386 42.7027 77.3785 42.6172L77.3672 42.3978C77.2434 42.5614 77.0821 42.6878 76.8833 42.7807C76.6845 42.87 76.4819 42.9183 76.2756 42.9183M76.3656 42.6395C76.5269 42.6395 76.6882 42.606 76.8495 42.5354C77.0108 42.4647 77.1346 42.3718 77.2284 42.2491C77.2547 42.2157 77.2734 42.1822 77.2922 42.145C77.3109 42.1079 77.3184 42.0707 77.3184 42.041V41.5874C77.1946 41.5428 77.0671 41.5056 76.9358 41.4796C76.8008 41.4536 76.6732 41.4424 76.5457 41.4424C76.2831 41.4424 76.0693 41.4945 75.908 41.5986C75.7429 41.7027 75.6641 41.8476 75.6641 42.0335C75.6641 42.1079 75.6791 42.1822 75.7054 42.2529C75.7354 42.3235 75.7804 42.3867 75.8367 42.4462C75.8967 42.5019 75.968 42.5502 76.0543 42.5837C76.1405 42.6209 76.2418 42.6358 76.3619 42.6358M76.5832 39.5502L76.3394 39.461L76.6582 38.9629H77.0446L76.5832 39.5502Z" fill="#003DA5"/>
<path d="M79.4307 42.9147C79.2131 42.9147 78.9993 42.8776 78.7892 42.8069C78.5791 42.7363 78.4028 42.6322 78.249 42.4984L78.4178 42.253C78.5754 42.3794 78.7367 42.4761 78.9017 42.5393C79.0668 42.6025 79.2394 42.6359 79.4269 42.6359C79.652 42.6359 79.832 42.5913 79.9671 42.4984C80.1021 42.4092 80.1697 42.279 80.1697 42.1118C80.1697 42.0337 80.1509 41.9668 80.1171 41.9185C80.0796 41.8664 80.0271 41.8218 79.9596 41.7809C79.8883 41.74 79.802 41.7066 79.697 41.6768C79.592 41.6471 79.4682 41.6136 79.3294 41.5839C79.1681 41.543 79.0293 41.5058 78.9092 41.4649C78.7892 41.424 78.6917 41.3831 78.6166 41.3311C78.5379 41.2828 78.4816 41.2196 78.4441 41.1489C78.4066 41.0746 78.3878 40.9854 78.3878 40.8738C78.3878 40.7363 78.4141 40.6136 78.4703 40.5058C78.5266 40.398 78.6016 40.3125 78.6954 40.2419C78.7892 40.1712 78.9017 40.1192 79.0293 40.0857C79.1568 40.0486 79.2919 40.0337 79.4382 40.0337C79.652 40.0337 79.8508 40.0671 80.0234 40.1378C80.1997 40.2084 80.3422 40.2976 80.451 40.4129L80.2747 40.6248C80.1697 40.517 80.0421 40.4389 79.8958 40.3831C79.7458 40.3311 79.592 40.3051 79.4307 40.3051C79.3331 40.3051 79.2431 40.3162 79.1606 40.3348C79.078 40.3534 79.0068 40.3869 78.943 40.4277C78.8792 40.4724 78.8305 40.5244 78.793 40.5913C78.7592 40.6582 78.7404 40.7363 78.7404 40.8218C78.7404 40.8961 78.7517 40.9556 78.7779 41.004C78.8042 41.0486 78.8455 41.0895 78.9017 41.1229C78.958 41.1564 79.033 41.1861 79.1193 41.2121C79.2056 41.2382 79.3144 41.2679 79.4382 41.2939C79.6182 41.3385 79.7758 41.3794 79.9108 41.424C80.0459 41.4686 80.1622 41.517 80.2522 41.5727C80.3422 41.6285 80.4135 41.6991 80.4585 41.7809C80.5035 41.8627 80.5298 41.9631 80.5298 42.0783C80.5298 42.3348 80.4322 42.5356 80.2334 42.688C80.0346 42.8367 79.772 42.911 79.4344 42.911" fill="#003DA5"/>
<path d="M83.4331 42.9147C83.2155 42.9147 83.0017 42.8776 82.7916 42.8069C82.5816 42.7363 82.4053 42.6322 82.2515 42.4984L82.4203 42.253C82.5778 42.3794 82.7391 42.4761 82.9042 42.5393C83.0655 42.6025 83.2418 42.6359 83.4294 42.6359C83.6544 42.6359 83.8345 42.5913 83.9695 42.4984C84.1046 42.4092 84.1721 42.279 84.1721 42.1118C84.1721 42.0337 84.1533 41.9668 84.1196 41.9185C84.0821 41.8664 84.0296 41.8218 83.962 41.7809C83.8908 41.74 83.8045 41.7066 83.6994 41.6768C83.5944 41.6471 83.4706 41.6136 83.3318 41.5839C83.1705 41.543 83.0317 41.5058 82.9117 41.4649C82.7916 41.424 82.6941 41.3831 82.6191 41.3311C82.5403 41.2828 82.484 41.2196 82.4465 41.1489C82.409 41.0746 82.3903 40.9854 82.3903 40.8738C82.3903 40.7363 82.4165 40.6136 82.4728 40.5058C82.5291 40.398 82.6041 40.3125 82.6979 40.2419C82.7916 40.1712 82.9042 40.1192 83.0317 40.0857C83.1593 40.0486 83.2943 40.0337 83.4369 40.0337C83.6507 40.0337 83.8495 40.0671 84.0258 40.1378C84.2021 40.2084 84.3447 40.2976 84.4534 40.4129L84.2771 40.6248C84.1721 40.517 84.0446 40.4389 83.8983 40.3831C83.7482 40.3311 83.5944 40.3051 83.4331 40.3051C83.3356 40.3051 83.2455 40.3162 83.163 40.3348C83.0805 40.3534 83.0092 40.3869 82.9454 40.4277C82.8817 40.4724 82.8329 40.5244 82.7954 40.5913C82.7616 40.6582 82.7429 40.7363 82.7429 40.8218C82.7429 40.8961 82.7541 40.9556 82.7804 41.004C82.8066 41.0486 82.8479 41.0895 82.9042 41.1229C82.9604 41.1564 83.0355 41.1861 83.1218 41.2121C83.208 41.2382 83.3168 41.2679 83.4406 41.2939C83.6207 41.3385 83.7782 41.3794 83.9133 41.424C84.0483 41.4686 84.1646 41.517 84.2546 41.5727C84.3447 41.6285 84.4159 41.6991 84.4609 41.7809C84.506 41.8627 84.5322 41.9631 84.5322 42.0783C84.5322 42.3348 84.4347 42.5356 84.2359 42.688C84.0371 42.8367 83.7745 42.911 83.4369 42.911" fill="#003DA5"/>
<path d="M85.1138 38.9629H85.4814V39.4982H85.1138V38.9629ZM85.1138 40.0781H85.4814V42.8588H85.1138V40.0781Z" fill="#003DA5"/>
<path d="M90.4442 42.8624H90.0766V41.3085C90.0766 40.9851 90.024 40.7471 89.9228 40.5947C89.8215 40.4423 89.6639 40.3642 89.4576 40.3642C89.3488 40.3642 89.2475 40.3828 89.1537 40.4237C89.06 40.4646 88.9699 40.5167 88.8912 40.591C88.8124 40.6616 88.7411 40.7471 88.6773 40.8438C88.6173 40.9405 88.5686 41.0483 88.5385 41.1672V42.8661H88.1709V41.3122C88.1709 40.9813 88.1222 40.7397 88.0209 40.591C87.9196 40.4423 87.7658 40.368 87.5595 40.368C87.3532 40.368 87.1581 40.4423 86.993 40.5873C86.828 40.7323 86.7079 40.9256 86.6367 41.1635V42.8661H86.269V40.0854H86.6029V40.7137C86.7192 40.5018 86.8692 40.3345 87.0568 40.2155C87.2444 40.0966 87.4507 40.0371 87.6758 40.0371C87.9008 40.0371 88.1034 40.104 88.2459 40.2341C88.3885 40.3642 88.4748 40.539 88.5048 40.7509C88.7674 40.275 89.1312 40.0371 89.5926 40.0371C89.7464 40.0371 89.8777 40.0668 89.9903 40.1226C90.0991 40.1784 90.1891 40.2602 90.2529 40.3642C90.3204 40.4683 90.3692 40.5947 90.3992 40.7434C90.4292 40.8921 90.4442 41.0557 90.4442 41.2379V42.8661V42.8624Z" fill="#003DA5"/>
<path d="M92.6421 42.9147C92.4058 42.9147 92.1957 42.8553 92.0119 42.7363C91.8281 42.6173 91.6818 42.4649 91.5693 42.2865V44.0002H91.2017V40.082H91.5318V40.6211C91.6481 40.4463 91.7944 40.3051 91.9782 40.1973C92.162 40.0895 92.3608 40.0337 92.5746 40.0337C92.7697 40.0337 92.946 40.0746 93.111 40.1527C93.2761 40.2344 93.4149 40.3385 93.5349 40.4724C93.655 40.6062 93.745 40.7586 93.8125 40.9333C93.88 41.108 93.9138 41.2865 93.9138 41.4724C93.9138 41.6694 93.8838 41.8553 93.8238 42.0263C93.7638 42.1973 93.6775 42.3534 93.5612 42.4835C93.4487 42.6136 93.3136 42.7214 93.1561 42.7958C92.9985 42.8738 92.8297 42.911 92.6421 42.911M92.5409 42.5913C92.6909 42.5913 92.8297 42.5579 92.9497 42.4947C93.0735 42.4315 93.1786 42.346 93.2648 42.2419C93.3511 42.1378 93.4186 42.0188 93.4674 41.885C93.5124 41.7512 93.5387 41.6136 93.5387 41.4724C93.5387 41.3237 93.5124 41.1824 93.4599 41.0448C93.4074 40.911 93.3324 40.7921 93.2386 40.688C93.1448 40.5839 93.036 40.5021 92.9085 40.4426C92.7809 40.3831 92.6421 40.3534 92.4958 40.3534C92.4021 40.3534 92.3045 40.372 92.207 40.4092C92.1057 40.4463 92.0119 40.4984 91.9219 40.5579C91.8319 40.6211 91.7568 40.6917 91.6931 40.7772C91.6293 40.8627 91.5918 40.9482 91.5768 41.0411V41.8961C91.6218 41.9965 91.6743 42.0895 91.7418 42.175C91.8094 42.2605 91.8844 42.3348 91.9669 42.398C92.0494 42.4612 92.1432 42.5095 92.2408 42.543C92.3383 42.5802 92.4433 42.595 92.5446 42.595" fill="#003DA5"/>
<path d="M94.5332 38.9629H94.9008V42.2305C94.9008 42.3346 94.9308 42.4164 94.9871 42.4722C95.0434 42.5317 95.1259 42.5614 95.2309 42.5614C95.2722 42.5614 95.3172 42.5577 95.3697 42.5465C95.4222 42.5354 95.4748 42.5205 95.5198 42.5019L95.5835 42.7956C95.516 42.8253 95.4297 42.8476 95.3322 42.8662C95.2347 42.8848 95.1484 42.8923 95.0771 42.8923C94.9083 42.8923 94.777 42.8439 94.6795 42.751C94.582 42.6581 94.5332 42.5242 94.5332 42.3532V38.9629Z" fill="#003DA5"/>
<path d="M97.1663 42.9145C96.96 42.9145 96.7724 42.8774 96.5999 42.7993C96.4273 42.7212 96.2773 42.6171 96.1535 42.4833C96.0259 42.3495 95.9284 42.1971 95.8609 42.0223C95.7896 41.8476 95.7559 41.6618 95.7559 41.461C95.7559 41.2603 95.7896 41.0818 95.8609 40.9071C95.9322 40.7361 96.0297 40.5837 96.1535 40.4536C96.2773 40.3235 96.4273 40.2194 96.5961 40.145C96.7649 40.067 96.9525 40.0298 97.1588 40.0298C97.3651 40.0298 97.549 40.067 97.7215 40.145C97.8941 40.2231 98.0366 40.3272 98.1604 40.4573C98.2842 40.5874 98.378 40.7398 98.4455 40.9108C98.513 41.0818 98.5468 41.264 98.5468 41.4536C98.5468 41.4833 98.5468 41.5093 98.5468 41.5391C98.5468 41.5688 98.543 41.5874 98.5393 41.5986H96.1422C96.1535 41.7473 96.1873 41.8848 96.2473 42.0112C96.3073 42.1376 96.3823 42.2491 96.4723 42.3383C96.5624 42.4313 96.6712 42.5019 96.7912 42.5539C96.9112 42.606 97.0388 42.632 97.1776 42.632C97.2714 42.632 97.3614 42.6209 97.4514 42.5948C97.5415 42.5688 97.624 42.5354 97.699 42.4945C97.774 42.4536 97.8416 42.3978 97.9016 42.3383C97.9616 42.2751 98.0066 42.2082 98.0404 42.1339L98.3592 42.2194C98.318 42.3235 98.2542 42.4164 98.1754 42.4982C98.0966 42.5837 98.0066 42.6543 97.9016 42.7175C97.7965 42.7807 97.684 42.829 97.5565 42.8625C97.4289 42.896 97.3014 42.9145 97.1701 42.9145M98.2054 41.3235C98.1942 41.1748 98.1604 41.0372 98.1004 40.9145C98.0404 40.7919 97.9653 40.6878 97.8753 40.5986C97.7853 40.5093 97.6765 40.4387 97.5565 40.3904C97.4327 40.3421 97.3051 40.316 97.1701 40.316C97.035 40.316 96.9037 40.3421 96.7799 40.3904C96.6562 40.4387 96.5511 40.5093 96.4611 40.5986C96.3711 40.6878 96.296 40.7956 96.2398 40.9183C96.1835 41.0409 96.1497 41.1785 96.1385 41.3235H98.2092H98.2054Z" fill="#003DA5"/>
<path d="M99.0042 42.9406C99.0305 42.9406 99.053 42.9332 99.0793 42.9183C99.1055 42.9034 99.1168 42.8737 99.1168 42.8291V42.3384H99.4281V42.8848C99.4281 42.9443 99.4169 42.9964 99.3906 43.041C99.3644 43.0819 99.3343 43.1191 99.2893 43.1451C99.2481 43.1711 99.2031 43.1897 99.1505 43.2046C99.1018 43.2157 99.0493 43.2231 99.0005 43.2231V42.9443L99.0042 42.9406Z" fill="#003DA5"/>
<path d="M105.76 42.8624H105.393V41.3085C105.393 40.9851 105.344 40.7471 105.239 40.5947C105.138 40.4423 104.98 40.3642 104.774 40.3642C104.665 40.3642 104.564 40.3828 104.47 40.4237C104.376 40.4646 104.286 40.5167 104.204 40.591C104.125 40.6616 104.054 40.7471 103.99 40.8438C103.926 40.9405 103.881 41.0483 103.851 41.1672V42.8661H103.483V41.3122C103.483 40.9813 103.435 40.7397 103.333 40.591C103.232 40.4423 103.078 40.368 102.872 40.368C102.666 40.368 102.471 40.4423 102.306 40.5873C102.14 40.7323 102.02 40.9256 101.949 41.1635V42.8661H101.582V40.0854H101.915V40.7137C102.032 40.5018 102.182 40.3345 102.369 40.2155C102.557 40.0966 102.763 40.0371 102.988 40.0371C103.213 40.0371 103.416 40.104 103.558 40.2341C103.701 40.3642 103.787 40.539 103.817 40.7509C104.08 40.275 104.444 40.0371 104.905 40.0371C105.059 40.0371 105.19 40.0668 105.303 40.1226C105.412 40.1784 105.502 40.2602 105.565 40.3642C105.633 40.4683 105.682 40.5947 105.712 40.7434C105.742 40.8921 105.757 41.0557 105.757 41.2379V42.8661L105.76 42.8624Z" fill="#003DA5"/>
<path d="M107.265 42.9146C107.122 42.9146 106.991 42.8923 106.871 42.8476C106.751 42.803 106.65 42.7398 106.567 42.6655C106.481 42.5874 106.417 42.4945 106.372 42.3941C106.327 42.29 106.301 42.1822 106.301 42.067C106.301 41.9369 106.331 41.8216 106.387 41.7175C106.443 41.6134 106.526 41.5242 106.631 41.4499C106.736 41.3755 106.86 41.316 107.006 41.2752C107.152 41.2343 107.314 41.212 107.49 41.212C107.629 41.212 107.775 41.2231 107.921 41.2491C108.068 41.2752 108.199 41.3086 108.315 41.3569V41.1079C108.315 40.8625 108.244 40.6655 108.101 40.5242C107.959 40.3792 107.768 40.3086 107.527 40.3086C107.377 40.3086 107.227 40.3384 107.077 40.3941C106.927 40.4499 106.777 40.5317 106.623 40.6395L106.496 40.3978C106.68 40.2752 106.856 40.1859 107.029 40.1265C107.201 40.067 107.381 40.0372 107.569 40.0372C107.91 40.0372 108.18 40.1339 108.383 40.3309C108.585 40.5279 108.687 40.7993 108.687 41.1413V42.3978C108.687 42.4982 108.728 42.5465 108.814 42.5465V42.8662C108.784 42.8662 108.758 42.8737 108.735 42.8737C108.709 42.8737 108.69 42.8737 108.672 42.8737C108.6 42.8737 108.533 42.8514 108.477 42.8105C108.416 42.7659 108.383 42.7027 108.379 42.6172L108.368 42.3978C108.244 42.5614 108.086 42.6878 107.884 42.7807C107.685 42.87 107.482 42.9183 107.276 42.9183M107.366 42.6395C107.527 42.6395 107.689 42.606 107.85 42.5354C108.011 42.4647 108.135 42.3718 108.229 42.2491C108.255 42.2157 108.274 42.1822 108.293 42.145C108.311 42.1079 108.319 42.0707 108.319 42.041V41.5874C108.195 41.5428 108.068 41.5056 107.936 41.4796C107.805 41.4536 107.674 41.4424 107.546 41.4424C107.284 41.4424 107.07 41.4945 106.908 41.5986C106.747 41.7027 106.665 41.8476 106.665 42.0335C106.665 42.1079 106.68 42.1822 106.71 42.2529C106.74 42.3235 106.781 42.3867 106.841 42.4462C106.901 42.5019 106.972 42.5502 107.059 42.5837C107.145 42.6209 107.246 42.6358 107.366 42.6358M107.587 39.5502L107.344 39.461L107.662 38.9629H108.049L107.587 39.5502Z" fill="#003DA5"/>
<path d="M110.416 42.9147C110.194 42.9147 109.984 42.8776 109.774 42.8069C109.564 42.7363 109.388 42.6322 109.234 42.4984L109.403 42.253C109.56 42.3794 109.722 42.4761 109.887 42.5393C110.052 42.6025 110.224 42.6359 110.412 42.6359C110.637 42.6359 110.817 42.5913 110.952 42.4984C111.087 42.4092 111.155 42.279 111.155 42.1118C111.155 42.0337 111.136 41.9668 111.102 41.9185C111.064 41.8664 111.012 41.8218 110.944 41.7809C110.873 41.74 110.787 41.7066 110.682 41.6768C110.577 41.6471 110.453 41.6136 110.314 41.5839C110.153 41.543 110.014 41.5058 109.894 41.4649C109.774 41.424 109.677 41.3831 109.602 41.3311C109.523 41.2828 109.466 41.2196 109.429 41.1489C109.391 41.0746 109.373 40.9854 109.373 40.8738C109.373 40.7363 109.399 40.6136 109.455 40.5058C109.511 40.398 109.587 40.3125 109.68 40.2419C109.774 40.1712 109.887 40.1192 110.014 40.0857C110.142 40.0486 110.277 40.0337 110.423 40.0337C110.637 40.0337 110.836 40.0671 111.008 40.1378C111.185 40.2084 111.327 40.2976 111.436 40.4129L111.26 40.6248C111.155 40.517 111.027 40.4389 110.881 40.3831C110.731 40.3311 110.577 40.3051 110.416 40.3051C110.318 40.3051 110.228 40.3162 110.145 40.3348C110.063 40.3534 109.992 40.3869 109.928 40.4277C109.864 40.4724 109.815 40.5244 109.778 40.5913C109.74 40.6582 109.725 40.7363 109.725 40.8218C109.725 40.8961 109.737 40.9556 109.763 41.004C109.789 41.0486 109.83 41.0895 109.887 41.1229C109.943 41.1564 110.018 41.1861 110.104 41.2121C110.19 41.2382 110.299 41.2679 110.427 41.2939C110.607 41.3385 110.764 41.3794 110.899 41.424C111.034 41.4686 111.151 41.517 111.241 41.5727C111.331 41.6285 111.402 41.6991 111.447 41.7809C111.492 41.8627 111.518 41.9631 111.518 42.0783C111.518 42.3348 111.421 42.5356 111.222 42.688C111.023 42.8367 110.757 42.911 110.423 42.911" fill="#003DA5"/>
<path d="M113.293 41.461C113.293 41.264 113.327 41.0818 113.394 40.9071C113.462 40.7324 113.559 40.58 113.683 40.4499C113.807 40.3197 113.957 40.2194 114.129 40.1413C114.302 40.067 114.493 40.0298 114.7 40.0298C114.966 40.0298 115.199 40.0893 115.394 40.2082C115.592 40.3272 115.739 40.487 115.84 40.6915L115.484 40.803C115.405 40.6618 115.296 40.5502 115.154 40.4684C115.015 40.3867 114.857 40.3495 114.685 40.3495C114.542 40.3495 114.407 40.3792 114.283 40.435C114.16 40.4908 114.051 40.5688 113.961 40.6655C113.871 40.7621 113.799 40.8811 113.747 41.0149C113.694 41.1487 113.668 41.2974 113.668 41.4573C113.668 41.6171 113.694 41.7621 113.751 41.8997C113.803 42.0372 113.878 42.1599 113.972 42.2603C114.066 42.3606 114.175 42.4424 114.298 42.5019C114.422 42.5614 114.553 42.5911 114.692 42.5911C114.782 42.5911 114.872 42.58 114.959 42.5539C115.049 42.5279 115.127 42.4945 115.202 42.4499C115.277 42.4052 115.341 42.3532 115.397 42.2974C115.45 42.2417 115.487 42.1785 115.51 42.1153L115.866 42.2231C115.825 42.3235 115.769 42.4127 115.694 42.4982C115.619 42.5837 115.529 42.6543 115.427 42.7175C115.326 42.7807 115.214 42.829 115.09 42.8625C114.966 42.896 114.838 42.9145 114.703 42.9145C114.501 42.9145 114.31 42.8774 114.137 42.7993C113.964 42.7212 113.814 42.6171 113.691 42.4833C113.567 42.3495 113.466 42.1971 113.398 42.0223C113.327 41.8476 113.293 41.6618 113.293 41.461Z" fill="#003DA5"/>
<path d="M117.671 42.9145C117.464 42.9145 117.277 42.8774 117.104 42.7993C116.932 42.7212 116.782 42.6171 116.658 42.4833C116.53 42.3495 116.433 42.1971 116.365 42.0223C116.294 41.8476 116.26 41.6618 116.26 41.461C116.26 41.2603 116.294 41.0818 116.365 40.9071C116.437 40.7361 116.534 40.5837 116.658 40.4536C116.782 40.3235 116.932 40.2194 117.101 40.145C117.269 40.067 117.457 40.0298 117.663 40.0298C117.87 40.0298 118.057 40.067 118.226 40.145C118.398 40.2231 118.545 40.3272 118.665 40.4573C118.789 40.5874 118.882 40.7398 118.95 40.9108C119.017 41.0818 119.051 41.264 119.051 41.4536C119.051 41.4833 119.051 41.5093 119.051 41.5391C119.051 41.5688 119.047 41.5874 119.044 41.5986H116.647C116.658 41.7473 116.692 41.8848 116.752 42.0112C116.812 42.1376 116.887 42.2491 116.977 42.3383C117.067 42.4313 117.176 42.5019 117.296 42.5539C117.416 42.606 117.543 42.632 117.682 42.632C117.776 42.632 117.866 42.6209 117.956 42.5948C118.046 42.5688 118.128 42.5354 118.203 42.4945C118.278 42.4536 118.346 42.3978 118.406 42.3383C118.466 42.2751 118.511 42.2082 118.545 42.1339L118.864 42.2194C118.819 42.3235 118.759 42.4164 118.68 42.4982C118.601 42.5837 118.511 42.6543 118.406 42.7175C118.301 42.7807 118.188 42.829 118.061 42.8625C117.937 42.896 117.806 42.9145 117.674 42.9145M118.71 41.3235C118.699 41.1748 118.665 41.0372 118.605 40.9145C118.545 40.7919 118.47 40.6878 118.38 40.5986C118.29 40.5093 118.181 40.4387 118.061 40.3904C117.937 40.3421 117.81 40.316 117.674 40.316C117.539 40.316 117.408 40.3421 117.284 40.3904C117.161 40.4387 117.056 40.5093 116.965 40.5986C116.875 40.6878 116.8 40.7956 116.744 40.9183C116.688 41.0409 116.654 41.1785 116.643 41.3235H118.714H118.71Z" fill="#003DA5"/>
<path d="M121.006 40.4015C120.758 40.4089 120.54 40.4758 120.357 40.6059C120.173 40.736 120.045 40.9108 119.97 41.1338V42.8624H119.603V40.0818H119.948V40.7509C120.045 40.5539 120.173 40.394 120.33 40.2639C120.488 40.1338 120.66 40.0669 120.84 40.0669H120.93C120.96 40.0669 120.983 40.0669 121.002 40.0706V40.4015H121.006Z" fill="#003DA5"/>
<path d="M121.313 41.461C121.313 41.264 121.347 41.0818 121.415 40.9071C121.482 40.7324 121.58 40.58 121.703 40.4499C121.827 40.3197 121.977 40.2194 122.15 40.1413C122.322 40.067 122.514 40.0298 122.72 40.0298C122.986 40.0298 123.219 40.0893 123.414 40.2082C123.613 40.3272 123.759 40.487 123.86 40.6915L123.504 40.803C123.425 40.6618 123.316 40.5502 123.174 40.4684C123.035 40.3867 122.878 40.3495 122.705 40.3495C122.562 40.3495 122.427 40.3792 122.304 40.435C122.18 40.4908 122.071 40.5688 121.981 40.6655C121.891 40.7621 121.82 40.8811 121.767 41.0149C121.715 41.1487 121.688 41.2974 121.688 41.4573C121.688 41.6171 121.715 41.7621 121.767 41.8997C121.82 42.0372 121.895 42.1599 121.989 42.2603C122.082 42.3606 122.191 42.4424 122.315 42.5019C122.439 42.5614 122.57 42.5911 122.709 42.5911C122.799 42.5911 122.889 42.58 122.975 42.5539C123.065 42.5279 123.144 42.4945 123.219 42.4499C123.294 42.4052 123.358 42.3532 123.414 42.2974C123.467 42.2417 123.504 42.1785 123.527 42.1153L123.883 42.2231C123.842 42.3235 123.785 42.4127 123.71 42.4982C123.635 42.5837 123.545 42.6543 123.444 42.7175C123.343 42.7807 123.23 42.829 123.106 42.8625C122.983 42.896 122.855 42.9145 122.72 42.9145C122.514 42.9145 122.326 42.8774 122.154 42.7993C121.981 42.7212 121.831 42.6171 121.707 42.4833C121.583 42.3495 121.482 42.1971 121.415 42.0223C121.343 41.8476 121.31 41.6618 121.31 41.461" fill="#003DA5"/>
<path d="M125.203 42.9144C125.061 42.9144 124.929 42.8921 124.809 42.8475C124.689 42.8029 124.588 42.7397 124.506 42.6654C124.419 42.5873 124.356 42.4944 124.311 42.394C124.266 42.2899 124.239 42.1821 124.239 42.0668C124.239 41.9367 124.269 41.8215 124.326 41.7174C124.382 41.6133 124.464 41.5241 124.569 41.4497C124.674 41.3754 124.798 41.3159 124.944 41.275C125.091 41.2341 125.252 41.2118 125.428 41.2118C125.567 41.2118 125.713 41.223 125.86 41.249C126.006 41.275 126.137 41.3085 126.254 41.3568V41.1077C126.254 40.8624 126.182 40.6654 126.04 40.5241C125.897 40.3791 125.706 40.3085 125.466 40.3085C125.316 40.3085 125.166 40.3382 125.016 40.394C124.866 40.4497 124.716 40.5315 124.562 40.6393L124.431 40.3977C124.614 40.2787 124.791 40.1858 124.963 40.1263C125.136 40.0668 125.316 40.0371 125.503 40.0371C125.845 40.0371 126.115 40.1338 126.317 40.3308C126.52 40.5278 126.618 40.7955 126.618 41.1412V42.3977C126.618 42.4981 126.659 42.5464 126.745 42.5464V42.8661C126.715 42.8661 126.689 42.8735 126.663 42.8735C126.636 42.8735 126.618 42.8735 126.599 42.8735C126.528 42.8735 126.46 42.8512 126.404 42.8103C126.344 42.7657 126.31 42.7025 126.302 42.617L126.291 42.3977C126.167 42.5613 126.01 42.6877 125.807 42.7806C125.605 42.8735 125.406 42.9181 125.2 42.9181M125.29 42.6393C125.451 42.6393 125.612 42.6059 125.774 42.5352C125.935 42.4646 126.059 42.3717 126.152 42.249C126.179 42.2155 126.197 42.1821 126.216 42.1449C126.235 42.1077 126.242 42.0743 126.242 42.0408V41.5873C126.119 41.5427 125.991 41.5055 125.86 41.4795C125.729 41.4535 125.597 41.4423 125.473 41.4423C125.211 41.4423 124.997 41.4944 124.836 41.5984C124.674 41.7025 124.592 41.8475 124.592 42.0334C124.592 42.1077 124.607 42.1821 124.633 42.2527C124.663 42.3234 124.704 42.3865 124.764 42.446C124.824 42.5018 124.896 42.5501 124.982 42.5836C125.068 42.6208 125.17 42.6356 125.29 42.6356" fill="#003DA5"/>
</g>
<defs>
<clipPath id="clip0_1355_487">
<rect width="83" height="34" fill="white" transform="translate(44 10)"/>
</clipPath>
</defs>
</svg>
