<svg width="110" height="110" viewBox="0 0 110 110" fill="none" xmlns="http://www.w3.org/2000/svg">
<circle cx="55" cy="55" r="55" fill="#00A9E0"/>
<g clip-path="url(#clip0_1701_1543)">
<path d="M36.468 58.5514C36.468 55.2141 36.462 51.8768 36.47 48.5395C36.474 47.1063 37.098 46.0153 38.352 45.3068C38.8633 45.019 39.435 44.9022 40.0167 44.9002C41.8564 44.8881 43.6982 44.862 45.538 44.9042C47.1181 44.9405 48.2473 45.7053 48.8552 47.1888C49.0101 47.5652 48.9699 47.69 49.3604 47.2734C51.0814 45.4336 52.5206 43.4006 53.6216 41.1341C54.3724 39.5862 54.9461 37.9759 55.3245 36.2972C55.4996 35.5162 55.9384 35.2224 56.7255 35.3331C57.0395 35.3773 57.3595 35.3814 57.6715 35.4397C59.5334 35.798 61.0833 37.4788 61.4255 39.3487C61.6429 40.5303 61.3872 41.6172 61.0753 42.7243C60.6364 44.2762 60.2097 45.8322 59.781 47.3861C59.6783 47.7565 59.628 48.1409 59.4811 48.4992C59.4348 48.6119 59.4891 48.6542 59.5958 48.6562C59.6803 48.6562 59.7629 48.6562 59.8474 48.6562C63.1767 48.6562 66.508 48.6502 69.8372 48.6602C70.5438 48.6622 71.2362 48.7669 71.8763 49.1031C73.0337 49.7109 73.6516 50.6832 73.7442 51.9694C73.8469 53.3965 73.2551 54.4995 72.0635 55.2785C71.9065 55.3812 71.9206 55.4557 71.995 55.5966C72.8163 57.1706 72.4036 58.8192 71.3388 59.8377C71.1516 60.0168 70.9483 60.1819 70.7209 60.3067C70.576 60.3852 70.5458 60.4617 70.6283 60.6227C70.9866 61.3292 71.1839 62.0719 71.0611 62.8751C70.9121 63.8513 70.4351 64.6283 69.646 65.214C69.2253 65.526 69.2113 65.524 69.4246 66.0131C69.9178 67.1444 69.8795 68.2534 69.2253 69.3001C68.5913 70.3126 67.6593 70.8943 66.4556 71.0292C66.047 71.0755 65.6384 71.0715 65.2278 71.0715C61.6972 71.0715 58.1667 71.0755 54.6361 71.0634C52.746 71.0574 50.9183 70.681 49.139 70.057C48.9397 69.9865 48.8391 70.0248 48.7485 70.22C48.1346 71.5706 47.0456 72.2389 45.5943 72.2671C43.7123 72.3033 41.8303 72.2832 39.9462 72.2731C38.2735 72.2651 36.7498 70.9044 36.5163 69.2398C36.4821 68.9982 36.47 68.7587 36.47 68.5151C36.47 65.1939 36.47 61.8747 36.47 58.5535L36.468 58.5514ZM49.0866 59.1191C49.0866 59.1191 49.0907 59.1191 49.0927 59.1191C49.0927 61.9471 49.0927 64.7732 49.0886 67.6013C49.0886 67.8046 49.145 67.9133 49.3463 67.9918C50.9968 68.6178 52.7058 68.958 54.465 68.9761C57.1582 69.0042 59.8534 68.9861 62.5467 68.9861C63.7423 68.9861 64.94 68.9861 66.1356 68.9861C66.4597 68.9861 66.7656 68.9257 67.0394 68.7365C67.6191 68.334 67.8385 67.71 67.6473 66.9914C67.4923 66.4137 66.9448 66.0172 66.2845 65.9407C65.6344 65.8642 64.9842 65.8541 64.3321 65.8441C63.7503 65.836 63.3035 65.4213 63.2793 64.9061C63.2491 64.264 63.537 63.8594 64.1328 63.8292C64.8997 63.7889 65.6726 63.7648 66.4375 63.8574C66.8461 63.9077 67.2547 63.9258 67.6634 63.9077C68.5289 63.8714 69.0824 63.1005 69.014 62.088C68.9778 61.5728 68.3578 60.8964 67.772 60.9125C67.0132 60.9347 66.2523 60.8763 65.4895 60.8783C64.7145 60.8803 64.2274 60.0329 64.6098 59.3646C64.8091 59.0144 65.1151 58.8393 65.5176 58.8393C66.6388 58.8393 67.76 58.8393 68.8811 58.8393C69.6541 58.8393 70.3324 58.2032 70.3848 57.4363C70.4431 56.5889 69.8916 55.8925 69.1247 55.8643C68.4484 55.8401 67.7721 55.7878 67.0937 55.8119C67.0011 55.816 66.9085 55.816 66.818 55.8059C66.351 55.7576 66.0229 55.512 65.8478 55.0793C65.6928 54.6988 65.8357 54.3748 66.0812 54.0849C66.3087 53.8172 66.6247 53.7729 66.9488 53.7729C68.0196 53.7729 69.0905 53.7769 70.1613 53.781C70.4612 53.781 70.7451 53.7125 71.0007 53.5616C71.5784 53.2194 71.7676 52.688 71.7112 52.0439C71.6609 51.4521 71.367 51.0414 70.8034 50.8402C70.5015 50.7315 70.1875 50.6791 69.8674 50.6872C69.4166 50.6973 68.9657 50.7254 68.5148 50.7254C65.7209 50.7295 62.9251 50.7274 60.1312 50.7254C59.6622 50.7254 59.1973 50.655 58.7283 50.6912C58.4605 50.7113 58.1948 50.7536 57.9271 50.7234C57.434 50.6691 56.9428 50.6852 56.4497 50.7134C55.9827 50.7395 55.5117 50.7315 55.0508 50.6389C54.624 50.5523 54.3241 50.196 54.2939 49.7814C54.2597 49.3104 54.4872 48.938 54.9139 48.7669C55.1011 48.6924 55.2963 48.6502 55.5016 48.6522C56.0371 48.6562 56.5725 48.6522 57.1079 48.6562C57.2548 48.6562 57.3414 48.6139 57.3796 48.463C57.4461 48.2134 57.5366 47.9698 57.6051 47.7202C58.1184 45.8422 58.6236 43.9622 59.1449 42.0882C59.3844 41.2287 59.62 40.3713 59.3603 39.4775C59.0684 38.4691 58.4545 37.7606 57.4219 37.4586C57.2327 37.4023 57.1079 37.4486 57.0536 37.668C56.8724 38.4168 56.6208 39.1434 56.3531 39.864C54.8696 43.8575 52.4501 47.215 49.3584 50.1075C49.1631 50.2907 49.0786 50.4738 49.0786 50.7375C49.0846 53.5314 49.0826 56.3252 49.0826 59.1191H49.0866ZM47.0174 58.6078C47.0174 55.4536 47.0174 52.3015 47.0174 49.1473C47.0174 48.8374 47.0275 48.5274 47.0114 48.2194C46.9711 47.5069 46.4236 46.9775 45.7191 46.9755C43.7525 46.9694 41.786 46.9694 39.8214 46.9755C39.1532 46.9755 38.6036 47.4988 38.5614 48.1631C38.5372 48.5374 38.5171 48.9139 38.5171 49.2903C38.5151 55.5462 38.5151 61.8022 38.5171 68.0602C38.5171 68.3199 38.5392 68.5775 38.5513 68.8372C38.5875 69.6363 39.1894 70.2381 39.9925 70.2401C41.8242 70.2462 43.6579 70.2401 45.4896 70.2361C46.4659 70.2361 47.0174 69.6947 47.0174 68.7204C47.0194 65.3489 47.0174 61.9794 47.0174 58.6078Z" fill="white"/>
<path d="M84.6621 56.0614C84.1348 56.0614 83.6074 56.0694 83.08 56.0593C82.5607 56.0493 82.1883 55.7796 82.0655 55.3508C81.8643 54.6463 82.2628 54.0565 83.0176 54.0344C84.1287 54.0022 85.2459 53.9801 86.355 54.0404C87.2406 54.0887 87.4338 54.6745 87.2708 55.4213C87.1843 55.8198 86.7797 56.0553 86.2664 56.0614C85.731 56.0694 85.1955 56.0614 84.6601 56.0614H84.6621Z" fill="white"/>
<path d="M56.186 84.5756C56.186 85.0768 56.1901 85.578 56.186 86.0792C56.18 86.8944 55.711 87.295 54.9059 87.1762C54.4993 87.1158 54.1631 86.7394 54.1551 86.2342C54.1349 85.1151 54.1309 83.9939 54.1551 82.8747C54.1692 82.2648 54.62 81.8764 55.2018 81.8864C55.7533 81.8965 56.1498 82.3111 56.184 82.919C56.184 82.9351 56.184 82.9532 56.184 82.9693C56.184 83.5048 56.184 84.0382 56.184 84.5736L56.186 84.5756Z" fill="white"/>
<path d="M25.653 54.0222C26.1884 54.0222 26.7239 54.0081 27.2573 54.0262C28.0242 54.0524 28.4851 54.6885 28.2577 55.3849C28.1288 55.7774 27.7726 56.0512 27.2935 56.0572C26.1905 56.0713 25.0854 56.0975 23.9844 56.0492C23.0745 56.0089 22.8572 55.3265 23.0826 54.608C23.2215 54.1651 23.6301 54.0423 24.0488 54.0262C24.5822 54.0061 25.1176 54.0222 25.653 54.0222Z" fill="white"/>
<path d="M44.4411 30.367C44.0043 30.3267 43.6883 30.1073 43.5232 29.7007C43.2253 28.9741 42.9355 28.2434 42.6537 27.5107C42.5248 27.1766 42.3598 26.8546 42.2752 26.5023C42.1766 26.0856 42.2974 25.7314 42.6335 25.4757C42.9556 25.2302 43.3199 25.1879 43.6983 25.361C43.9318 25.4677 44.0888 25.6529 44.1794 25.8844C44.59 26.925 45.0148 27.9616 45.3992 29.0123C45.5844 29.5216 45.3026 30.0792 44.8074 30.2885C44.6907 30.3388 44.5719 30.373 44.4391 30.367H44.4411Z" fill="white"/>
<path d="M68.0802 26.2487C68.0863 26.4097 68.0581 26.5587 68.0038 26.6996C67.6072 27.6999 67.2147 28.7024 66.8061 29.6987C66.5907 30.2221 66.0513 30.4837 65.5964 30.3187C65.0267 30.1114 64.7369 29.5659 64.9482 28.9902C65.3266 27.9556 65.7151 26.923 66.1459 25.9105C66.476 25.1315 67.4059 25.0389 67.9132 25.6971C68.042 25.8642 68.0984 26.0494 68.0823 26.2507L68.0802 26.2487Z" fill="white"/>
<path d="M42.2472 83.8168C42.2411 83.6638 42.2713 83.5169 42.3277 83.376C42.7222 82.3836 43.1127 81.3873 43.5173 80.3989C43.7045 79.94 44.1272 79.6783 44.5539 79.7226C44.9907 79.7669 45.353 80.1333 45.4517 80.6143C45.4899 80.7975 45.4376 80.9666 45.3752 81.1276C45.0591 81.9629 44.7331 82.7963 44.409 83.6276C44.3204 83.853 44.2419 84.0845 44.1252 84.2958C43.8877 84.7246 43.4468 84.9058 43 84.785C42.529 84.6562 42.2411 84.2898 42.2452 83.8188L42.2472 83.8168Z" fill="white"/>
<path d="M26.3998 67.9575C25.9489 67.9575 25.5745 67.6918 25.4457 67.2932C25.3028 66.8564 25.4376 66.4136 25.7859 66.1519C26.0596 65.9466 26.3897 65.8661 26.6997 65.7493C27.5351 65.4333 28.3462 65.0529 29.2017 64.7912C29.8458 64.596 30.5221 65.1394 30.4758 65.8097C30.4497 66.1821 30.2564 66.47 29.9102 66.635C29.1252 67.0074 28.2939 67.267 27.4928 67.6052C27.3076 67.6837 27.1204 67.7501 26.9352 67.8306C26.7561 67.9092 26.5769 67.9675 26.3998 67.9554V67.9575Z" fill="white"/>
<path d="M83.9316 67.9573C83.7947 67.9674 83.6638 67.9412 83.5391 67.8909C82.5688 67.5085 81.5986 67.124 80.6284 66.7375C80.3929 66.6429 80.1776 66.5222 80.0326 66.3008C79.783 65.9163 79.783 65.55 80.0467 65.1816C80.2963 64.8334 80.7291 64.6603 81.1256 64.7871C81.5383 64.9199 81.9428 65.081 82.3474 65.238C82.9855 65.4855 83.6216 65.7372 84.2576 65.9908C84.6662 66.1538 84.9158 66.4497 84.944 66.8946C84.9682 67.2931 84.7971 67.6051 84.4569 67.8205C84.2959 67.9231 84.1208 67.9674 83.9316 67.9553V67.9573Z" fill="white"/>
<path d="M68.0822 83.8308C68.0843 84.2615 67.8306 84.6138 67.41 84.7587C66.9993 84.9016 66.5686 84.7788 66.3049 84.4447C66.2163 84.332 66.1479 84.2072 66.0956 84.0743C65.7453 83.1786 65.3931 82.2849 65.0428 81.3892C64.9583 81.1718 64.8758 80.9524 64.8798 80.7108C64.8878 80.27 65.2119 79.8634 65.6588 79.7406C66.013 79.644 66.4901 79.8373 66.6994 80.1835C66.9792 80.6444 67.1181 81.1678 67.3194 81.6629C67.5408 82.2044 67.7542 82.7499 67.9695 83.2934C68.038 83.4665 68.0843 83.6416 68.0802 83.8308H68.0822Z" fill="white"/>
<path d="M30.4798 44.2581C30.4879 44.9888 29.8196 45.484 29.1674 45.2827C28.6984 45.1378 28.2415 44.9485 27.7826 44.7714C27.2532 44.5681 26.7278 44.3568 26.2005 44.1494C25.9066 44.0347 25.6409 43.8858 25.496 43.5838C25.3067 43.1893 25.3691 42.7424 25.655 42.4445C25.975 42.1084 26.3917 42.0319 26.8506 42.2151C27.6034 42.515 28.3562 42.8109 29.107 43.1108C29.3627 43.2135 29.6203 43.3121 29.8699 43.4288C30.2503 43.608 30.4456 43.918 30.4798 44.2601V44.2581Z" fill="white"/>
<path d="M83.9818 42.1265C84.3844 42.1265 84.7528 42.4003 84.8876 42.7928C85.0265 43.2014 84.9017 43.6482 84.5817 43.8998C84.2777 44.1394 83.9053 44.2239 83.5591 44.3648C82.7922 44.6748 82.0213 44.9707 81.2484 45.2605C80.8679 45.4034 80.5036 45.3511 80.1956 45.0713C79.6381 44.5661 79.7669 43.7489 80.4714 43.4248C80.9263 43.2155 81.3993 43.0504 81.8643 42.8632C82.3836 42.6559 82.9029 42.4486 83.4223 42.2392C83.6014 42.1668 83.7866 42.1205 83.9818 42.1265Z" fill="white"/>
<path d="M33.2859 32.0843C33.5274 32.0561 33.7388 32.1709 33.926 32.3601C34.6325 33.0726 35.341 33.7812 36.0475 34.4917C36.118 34.5621 36.1784 34.6447 36.2428 34.7212C36.8446 35.4357 36.3213 36.1644 35.7033 36.3637C35.5242 36.422 35.339 36.4079 35.1659 36.3254C34.9827 36.2389 34.8157 36.1261 34.6728 35.9852C33.9501 35.2667 33.2215 34.5521 32.513 33.8194C32.044 33.3343 32.0943 32.7264 32.6055 32.2856C32.7887 32.1286 32.9336 32.0843 33.2879 32.0843H33.2859Z" fill="white"/>
<path d="M77.1138 32.0865C77.5728 32.0624 77.8586 32.314 78.0317 32.6602C78.2048 33.0044 78.1827 33.3727 77.925 33.6948C77.7056 33.9706 77.446 34.2081 77.1984 34.4557C76.7073 34.9448 76.2161 35.4339 75.7209 35.919C75.6143 36.0237 75.4955 36.1183 75.3747 36.2048C75.0708 36.4202 74.7447 36.4705 74.4126 36.2713C74.0543 36.0579 73.8228 35.76 73.8208 35.3212C73.8208 35.2085 73.855 35.1078 73.9013 35.0092C73.9899 34.826 74.1086 34.665 74.2495 34.5221C74.9561 33.8116 75.6646 33.103 76.3711 32.3925C76.5824 32.1811 76.828 32.0563 77.1098 32.0845L77.1138 32.0865Z" fill="white"/>
<path d="M33.2516 77.9937C32.7867 78.0279 32.4827 77.7924 32.3036 77.4301C32.1224 77.0638 32.1264 76.6612 32.4264 76.3512C33.2094 75.5501 33.9904 74.743 34.8176 73.9881C35.3953 73.4608 36.1361 73.6782 36.444 74.3988C36.5366 74.6182 36.5346 74.8376 36.434 75.0549C36.3514 75.2301 36.2468 75.3911 36.1099 75.53C35.3893 76.2526 34.6687 76.9752 33.9441 77.6938C33.7488 77.8891 33.5274 78.032 33.2536 77.9937H33.2516Z" fill="white"/>
<path d="M78.1203 76.9506C78.1525 77.4276 77.913 77.7235 77.5506 77.9027C77.1903 78.0798 76.7998 78.0637 76.4959 77.7759C75.6626 76.9888 74.8453 76.1877 74.0764 75.3383C73.8127 75.0464 73.7202 74.6902 73.9235 74.3178C74.1288 73.9434 74.4287 73.6978 74.8796 73.6958C75.109 73.6958 75.2962 73.8105 75.4693 73.9434C75.8095 74.203 76.0893 74.5291 76.3912 74.829C76.8663 75.3001 77.3393 75.7731 77.8083 76.2481C78.0055 76.4494 78.1666 76.6728 78.1203 76.9486V76.9506Z" fill="white"/>
<path d="M56.1841 25.6006C56.1841 26.1179 56.1962 26.6372 56.1801 27.1546C56.1559 27.9033 55.5762 28.3341 54.8637 28.1489C54.453 28.0422 54.1551 27.6638 54.1491 27.1686C54.135 26.1159 54.131 25.0652 54.1491 24.0125C54.1612 23.4046 54.6 23 55.1716 23C55.7413 23 56.1599 23.4126 56.1801 24.0225C56.1982 24.5479 56.1841 25.0753 56.1841 25.6006Z" fill="white"/>
<path d="M45.9185 46.9712H39.6444C39.0385 46.9712 38.5474 47.4623 38.5474 48.0682V68.9275C38.5474 69.5334 39.0385 70.0245 39.6444 70.0245H45.9185C46.5243 70.0245 47.0155 69.5334 47.0155 68.9275V48.0682C47.0155 47.4623 46.5243 46.9712 45.9185 46.9712Z" fill="#F6BE00"/>
</g>
<defs>
<clipPath id="clip0_1701_1543">
<rect width="64.3251" height="64.1963" fill="white" transform="translate(23 23)"/>
</clipPath>
</defs>
</svg>
