<svg width="21" height="21" viewBox="0 0 21 21" fill="none" xmlns="http://www.w3.org/2000/svg">
<g clip-path="url(#clip0_1355_1359)">
<path d="M10.4945 20.9973C8.7109 20.9973 6.9273 21.0053 5.1428 20.9947C3.56173 20.9858 2.33132 20.0367 1.96282 18.5752C1.90393 18.3412 1.89947 18.1064 1.89947 17.8698C1.89858 16.1058 1.89768 14.3428 1.89947 12.5788C1.89947 11.853 2.27867 11.3904 2.86934 11.3824C3.46804 11.3744 3.89811 11.8592 3.90168 12.5895C3.9106 14.2645 3.90346 15.9386 3.90614 17.6136C3.90792 18.5894 4.30587 18.995 5.28199 18.9959C8.75998 18.9995 12.2389 18.9995 15.7169 18.9959C16.6894 18.995 17.0865 18.5885 17.0882 17.6091C17.0909 16.0089 17.0882 14.4077 17.09 12.8074C17.09 12.6447 17.0865 12.4801 17.1105 12.32C17.1962 11.7462 17.6584 11.346 18.1741 11.386C18.7148 11.4278 19.0913 11.8503 19.0931 12.4499C19.0994 14.2129 19.0976 15.9768 19.0949 17.7408C19.0931 19.6488 17.7681 20.9831 15.8462 20.9956C14.0626 21.0071 12.279 20.9982 10.4945 20.9982V20.9973Z" fill="white"/>
<path d="M19.8979 10.5212C19.7025 10.531 19.4634 10.3967 19.2457 10.201C16.5074 7.73965 13.7664 5.28099 11.0289 2.81877C10.4945 2.33754 10.5052 2.33576 9.95556 2.82945C7.23956 5.2712 4.52087 7.71029 1.80129 10.1485C1.34714 10.5559 0.874243 10.6297 0.462916 10.3727C0.0881708 10.1378 -0.0831413 9.67971 0.0382047 9.2474C0.110477 8.99033 0.295173 8.81865 0.483438 8.64964C2.8015 6.56547 5.12135 4.4813 7.44031 2.39714C8.19159 1.72198 8.94197 1.04772 9.69503 0.375237C10.2464 -0.116673 10.7363 -0.127347 11.277 0.357446C14.2955 3.0625 17.3113 5.77112 20.3262 8.47974C20.4805 8.6185 20.6367 8.75816 20.7696 8.91738C21.0328 9.23317 21.065 9.59254 20.8937 9.95902C20.7206 10.3282 20.4154 10.5123 19.897 10.5221L19.8979 10.5212Z" fill="white"/>
</g>
<defs>
<clipPath id="clip0_1355_1359">
<rect width="21" height="21" fill="white"/>
</clipPath>
</defs>
</svg>
