<svg width="20" height="20" viewBox="0 0 20 20" fill="none" xmlns="http://www.w3.org/2000/svg">
<path d="M7.14929 0.00976562C4.50782 0.13291 2.22672 1.46777 0.824692 4.14709C-0.0607719 5.83912 -0.226564 7.65003 0.295332 9.50466C0.914251 11.7026 2.26457 13.3083 4.30844 14.2897C6.19665 15.1959 8.1547 15.2642 10.133 14.5472C10.7732 14.3153 11.3564 13.9805 11.9151 13.5988C12.0153 13.53 12.0751 13.5071 12.1801 13.6143C13.1434 14.5978 14.1136 15.5744 15.0849 16.55C16.0626 17.5319 17.044 18.5102 18.0238 19.49C18.2445 19.7107 18.4642 19.9341 18.7963 19.9788C19.2505 20.0401 19.6508 19.8418 19.872 19.4473C20.0784 19.079 20.0373 18.6211 19.7334 18.282C19.4552 17.9717 19.1518 17.6833 18.857 17.388C17.1869 15.7168 15.5167 14.045 13.8449 12.3759C13.5128 12.0443 13.5069 12.0464 13.7596 11.6717C14.6685 10.3224 15.1003 8.82443 15.0151 7.21076C14.8882 4.81025 13.8513 2.86607 11.9013 1.43792C10.6 0.484217 9.13026 0.023626 7.14929 0.00976562ZM7.51392 2.09255C10.5296 2.08242 12.9626 4.46481 12.9557 7.52262C12.9488 10.581 10.5669 12.9532 7.50166 12.9527C4.39907 12.9527 1.99323 10.3651 2.09665 7.29712C2.18674 4.6306 4.46944 2.0579 7.51339 2.09255H7.51392Z" fill="black"/>
</svg>
