<svg width="18" height="23" viewBox="0 0 18 23" fill="none" xmlns="http://www.w3.org/2000/svg">
<g clip-path="url(#clip0_1355_1123)">
<path d="M8.9872 22.0914C6.97316 22.0914 4.95912 22.0941 2.94509 22.0914C1.22309 22.0877 0.0055081 20.8756 0.00367716 19.149C-0.000900199 13.7633 -0.000900199 8.3776 0.00367716 2.99097C0.0055081 1.26897 1.22675 0.0660369 2.9515 0.0532203C4.85751 0.0385728 6.76443 0.00744674 8.67045 0.000122971C9.41747 -0.00262344 10.1636 0.0413192 10.9106 0.0632905C11.2786 0.0742762 11.5707 0.218921 11.8361 0.487154C13.5966 2.265 15.3442 4.05749 17.1532 5.78499C17.7776 6.38096 18.0028 7.02087 17.9991 7.8448C17.9817 11.5982 17.9918 15.3517 17.9863 19.1051C17.9863 19.3321 17.9561 19.5619 17.9121 19.7844C17.6384 21.153 16.5133 22.0859 15.1199 22.0905C13.0757 22.0969 11.0305 22.0923 8.98628 22.0923L8.9872 22.0914ZM1.59294 11.0618C1.59294 13.7304 1.59019 16.399 1.59477 19.0666C1.5966 20.0288 2.08821 20.5314 3.04854 20.557C3.55113 20.5708 4.05464 20.5607 4.55815 20.5607C7.97377 20.5607 11.3894 20.5634 14.805 20.5589C15.9054 20.558 16.3943 20.0636 16.3961 18.9678C16.4007 15.4304 16.397 11.893 16.4135 8.35472C16.4153 7.92444 16.2908 7.76424 15.8441 7.77064C14.35 7.79262 12.856 7.78438 11.361 7.77614C10.5334 7.77156 10.2579 7.48959 10.256 6.67666C10.2533 5.15148 10.2441 3.62722 10.2625 2.10205C10.267 1.71114 10.1627 1.56833 9.74979 1.57199C7.55449 1.59121 5.35827 1.57931 3.16297 1.58663C2.0818 1.5903 1.59477 2.07916 1.59385 3.1466C1.5911 5.78407 1.59385 8.42246 1.59385 11.0599L1.59294 11.0618ZM11.8535 2.90308C11.8535 3.89912 11.8499 4.91346 11.8563 5.9278C11.8581 6.18688 12.0595 6.19146 12.2509 6.19146C12.9365 6.19146 13.6231 6.19787 14.3088 6.18963C14.599 6.18596 14.8966 6.23265 15.1053 6.17498C14.0287 5.09197 12.9512 4.00714 11.8535 2.904V2.90308Z" fill="white"/>
<path d="M8.9982 9.57605C10.4465 9.57605 11.8938 9.57788 13.3421 9.57422C13.7229 9.57331 13.9985 9.73535 14.1184 10.0915C14.2292 10.4219 14.145 10.7241 13.8603 10.9511C13.7092 11.0719 13.5344 11.1049 13.3458 11.1049C10.4501 11.1049 7.55358 11.1076 4.65795 11.1012C4.14345 11.1003 3.83402 10.7836 3.84501 10.3185C3.85508 9.8745 4.1581 9.58155 4.65429 9.5788C6.10256 9.57056 7.54992 9.57605 8.9982 9.57605Z" fill="white"/>
<path d="M9.00001 13.2375C10.4483 13.2375 11.8956 13.2394 13.3439 13.2366C13.7449 13.2366 14.0259 13.4151 14.1312 13.7987C14.2246 14.1365 14.1184 14.4304 13.8227 14.6409C13.6643 14.7535 13.4849 14.7673 13.2991 14.7673C10.4336 14.7673 7.56821 14.7691 4.70187 14.7645C4.15075 14.7645 3.83217 14.4588 3.84407 13.9791C3.85506 13.5204 4.1654 13.2412 4.70095 13.2394C6.13367 13.2339 7.56638 13.2375 8.99909 13.2375H9.00001Z" fill="white"/>
<path d="M6.79103 18.4294C6.09069 18.4294 5.38944 18.4358 4.68911 18.4276C4.16271 18.4212 3.85054 18.1337 3.84504 17.675C3.83955 17.21 4.14806 16.906 4.66805 16.9033C6.08429 16.8951 7.50144 16.896 8.91767 16.9033C9.44498 16.906 9.75624 17.1953 9.76173 17.6558C9.76723 18.1337 9.44864 18.4239 8.89295 18.4294C8.19262 18.4358 7.49137 18.4312 6.79103 18.4312V18.4294Z" fill="white"/>
</g>
<defs>
<clipPath id="clip0_1355_1123">
<rect width="18" height="22.0931" fill="white"/>
</clipPath>
</defs>
</svg>
