<svg width="28" height="28" viewBox="0 0 28 28" fill="none" xmlns="http://www.w3.org/2000/svg">
<circle cx="14" cy="14" r="14" fill="#F6BE00"/>
<path d="M11.4917 14.175C11.4917 12.6972 12.6972 11.4917 14.175 11.4917C15.6528 11.4917 16.8583 12.6972 16.8583 14.175C16.8583 15.6528 15.6528 16.8583 14.175 16.8583C12.6972 16.8583 11.4917 15.6917 11.4917 14.175ZM10.0528 14.175C10.0528 16.4694 11.9194 18.3361 14.2139 18.3361C16.5083 18.3361 18.375 16.4694 18.375 14.175C18.375 11.8806 16.5083 10.0139 14.2139 10.0139C11.9194 10.0139 10.0528 11.9194 10.0528 14.175ZM17.5194 9.89722C17.5194 10.4417 17.9472 10.8694 18.4917 10.8694C19.0361 10.8694 19.4639 10.4417 19.4639 9.89722C19.4639 9.35278 19.0361 8.925 18.4917 8.925C17.9472 8.925 17.5194 9.35278 17.5194 9.89722ZM10.9083 20.7472C10.1306 20.7083 9.70278 20.5917 9.39167 20.475C9.00278 20.3194 8.73055 20.1639 8.45833 19.8528C8.18611 19.5806 7.99167 19.3083 7.83611 18.9194C7.71944 18.6472 7.60278 18.2194 7.56389 17.4028C7.525 16.5472 7.525 16.3139 7.525 14.1361C7.525 11.9583 7.525 11.725 7.56389 10.8694C7.60278 10.0917 7.71944 9.66389 7.83611 9.35278C7.99167 8.96389 8.14722 8.69167 8.45833 8.41944C8.73055 8.14722 9.00278 7.95278 9.39167 7.79722C9.66389 7.68056 10.0917 7.56389 10.9083 7.525C11.7639 7.48611 11.9972 7.48611 14.175 7.48611C16.3139 7.48611 16.5861 7.48611 17.4417 7.525C18.2194 7.56389 18.6472 7.68056 18.9583 7.79722C19.3472 7.95278 19.6194 8.10833 19.8917 8.41944C20.1639 8.69167 20.3583 8.96389 20.5139 9.35278C20.6306 9.625 20.7472 10.0528 20.7861 10.8694C20.825 11.725 20.825 11.9583 20.825 14.1361C20.825 16.275 20.825 16.5472 20.7861 17.4028C20.7472 18.1806 20.6306 18.6083 20.5139 18.9194C20.3583 19.3083 20.2028 19.5806 19.8917 19.8528C19.6194 20.125 19.3472 20.3194 18.9583 20.475C18.6861 20.5917 18.2583 20.7083 17.4417 20.7472C16.5861 20.7861 16.3528 20.7861 14.175 20.7861C12.0361 20.825 11.7639 20.7861 10.9083 20.7472ZM10.8694 6.16389C10.0139 6.20278 9.43056 6.35833 8.925 6.55278C8.38056 6.74722 7.95278 7.01944 7.48611 7.48611C7.01944 7.95278 6.74722 8.38056 6.55278 8.925C6.35833 9.43056 6.20278 10.0139 6.16389 10.8694C6.125 11.725 6.125 11.9972 6.125 14.2139C6.125 16.4306 6.125 16.6639 6.16389 17.5583C6.20278 18.4139 6.35833 18.9972 6.55278 19.5028C6.74722 20.0472 7.01944 20.475 7.48611 20.9417C7.95278 21.4083 8.38056 21.6806 8.925 21.875C9.43056 22.0694 10.0139 22.225 10.8694 22.2639C11.725 22.3028 11.9972 22.3028 14.2139 22.3028C16.3917 22.3028 16.6639 22.3028 17.5583 22.2639C18.4139 22.225 18.9972 22.0694 19.5028 21.875C20.0472 21.6806 20.475 21.4083 20.9417 20.9417C21.4083 20.475 21.6806 20.0472 21.875 19.5028C22.0694 18.9972 22.225 18.4139 22.2639 17.5583C22.3028 16.7028 22.3028 16.4306 22.3028 14.2139C22.3028 11.9972 22.3028 11.7639 22.2639 10.8694C22.225 10.0139 22.0694 9.43056 21.875 8.925C21.6806 8.38056 21.4083 7.95278 20.9417 7.48611C20.475 7.01944 20.0472 6.74722 19.5028 6.55278C18.9972 6.35833 18.4139 6.20278 17.5583 6.16389C16.7028 6.125 16.4306 6.125 14.2139 6.125C11.9972 6.125 11.725 6.125 10.8694 6.16389Z" fill="#232323"/>
</svg>
