<svg width="18" height="20" viewBox="0 0 18 20" fill="none" xmlns="http://www.w3.org/2000/svg">
<path d="M9.0023 19.991C7.45107 19.991 5.8994 19.9656 4.34907 19.9995C3.26236 20.0235 2.393 19.2081 2.35202 18.0554C2.29012 16.3212 2.20505 14.5882 2.12355 12.8548C2.05719 11.4475 1.9886 10.0405 1.90665 8.63407C1.87904 8.15975 1.87503 7.68498 1.85588 7.21066C1.84386 6.91449 1.8296 6.90336 1.53432 6.89623C1.11924 6.88599 0.882746 6.65618 0.880519 6.24332C0.876065 5.49376 0.872502 4.7442 0.881855 3.99464C0.891653 3.1814 1.56461 2.50933 2.37964 2.50265C3.45565 2.49374 4.53211 2.49463 5.60813 2.50399C5.81523 2.50577 5.88381 2.44342 5.87001 2.23855C5.83438 1.70232 5.88782 1.18614 6.24189 0.742101C6.59373 0.301184 7.03955 0.0237182 7.60784 0.0130293C8.5351 -0.00434011 9.46326 -0.00389474 10.391 0.0116932C11.2986 0.0268358 12.1003 0.839192 12.1315 1.74641C12.1368 1.90229 12.1471 2.05951 12.1315 2.21361C12.1088 2.4354 12.1818 2.508 12.4134 2.50532C13.4373 2.49285 14.4617 2.49864 15.486 2.50042C16.4738 2.50176 17.1201 3.14398 17.1227 4.12558C17.1245 4.82303 17.1254 5.52093 17.1223 6.21838C17.1201 6.66063 16.8907 6.90202 16.4484 6.89044C16.2164 6.88421 16.1501 6.97996 16.1452 7.18572C16.1327 7.67519 16.1215 8.1642 16.0953 8.65367C16.0089 10.253 15.9381 11.8532 15.8641 13.453C15.8169 14.4751 15.7782 15.4977 15.7274 16.5198C15.6967 17.1415 15.6842 17.7668 15.6022 18.3828C15.4731 19.3537 14.7066 19.9883 13.7232 19.9901C12.1497 19.9928 10.5762 19.991 9.00274 19.991H9.0023ZM8.98092 18.7119C10.4796 18.7119 11.9787 18.7119 13.4774 18.7119C14.1192 18.7119 14.3142 18.5177 14.3392 17.8871C14.381 16.8204 14.4176 15.7533 14.4821 14.6875C14.5939 12.845 14.6549 10.9999 14.7422 9.15604C14.7725 8.51916 14.8001 7.88228 14.8411 7.24585C14.8634 6.89623 14.8745 6.89668 14.5182 6.89668C13.2271 6.89668 11.936 6.89668 10.6453 6.89668C8.22646 6.89668 5.80765 6.89757 3.38885 6.8949C3.22673 6.8949 3.12519 6.90425 3.13944 7.11936C3.20179 8.06578 3.25301 9.01352 3.29933 9.96083C3.34965 10.9825 3.37549 12.0055 3.43205 13.0272C3.52246 14.6555 3.59104 16.2851 3.6623 17.9143C3.68814 18.5026 3.89301 18.711 4.48446 18.711C5.98313 18.7119 7.48225 18.711 8.98092 18.711V18.7119ZM8.99829 5.61802C9.5844 5.61802 10.1705 5.61802 10.7566 5.61802C12.3591 5.61802 13.9615 5.61312 15.5639 5.62336C15.7946 5.6247 15.8579 5.55433 15.8476 5.33254C15.8303 4.96243 15.845 4.59099 15.8423 4.22C15.8401 3.91136 15.7154 3.78131 15.4125 3.78131C11.1392 3.77997 6.86585 3.77997 2.59252 3.78131C2.287 3.78131 2.16096 3.90958 2.15873 4.21599C2.15561 4.58699 2.15784 4.95798 2.15784 5.32897C2.15784 5.52167 2.25671 5.61817 2.45446 5.61846C4.63544 5.61846 6.81686 5.61846 8.99784 5.61846L8.99829 5.61802ZM8.98003 2.50042C9.43965 2.50042 9.89972 2.50532 10.3593 2.49909C10.9276 2.49152 10.8546 2.6033 10.8519 1.98647C10.8497 1.55134 10.59 1.29169 10.1558 1.28813C9.38443 1.28144 8.61304 1.28144 7.84166 1.28813C7.41054 1.29213 7.15891 1.55535 7.14688 1.99003C7.14421 2.08623 7.1549 2.18377 7.14421 2.27908C7.12328 2.46301 7.21013 2.50532 7.37803 2.5031C7.91203 2.49508 8.44603 2.49998 8.98003 2.50042Z" fill="black"/>
<path d="M6.5232 12.8273C6.5232 14.1629 6.52542 15.4986 6.52186 16.8343C6.52097 17.2765 6.21856 17.5415 5.78878 17.4925C5.50107 17.4596 5.28328 17.2436 5.24988 16.9554C5.24409 16.9042 5.24454 16.8516 5.24454 16.8C5.24454 14.1358 5.24365 11.472 5.24454 8.8078C5.24454 8.39806 5.45653 8.14375 5.81149 8.11525C6.22881 8.08185 6.5183 8.33482 6.52097 8.75347C6.52676 9.59923 6.5232 10.4454 6.5232 11.2912C6.5232 11.8034 6.5232 12.3151 6.5232 12.8273Z" fill="black"/>
<path d="M9.64028 12.8245C9.64028 14.1602 9.6425 15.4959 9.63894 16.8315C9.63805 17.2756 9.33876 17.5401 8.90898 17.4933C8.62082 17.4617 8.40215 17.2471 8.36696 16.9589C8.36162 16.9148 8.36162 16.8698 8.36162 16.8257C8.36162 14.1468 8.36073 11.4679 8.36206 8.78902C8.36206 8.38819 8.58742 8.13477 8.94773 8.11428C9.35658 8.09112 9.63493 8.33964 9.63805 8.75027C9.64429 9.49226 9.64028 10.2342 9.64028 10.9762C9.64028 11.5922 9.64028 12.2081 9.64028 12.8241V12.8245Z" fill="black"/>
<path d="M12.7583 12.8197C12.7583 14.1553 12.7601 15.491 12.7575 16.8266C12.7566 17.2658 12.4769 17.5254 12.0538 17.4947C11.7433 17.472 11.514 17.2502 11.4837 16.9411C11.4788 16.8894 11.4797 16.8373 11.4797 16.7852C11.4797 14.1286 11.4792 11.472 11.4797 8.81532C11.4797 8.38331 11.7033 8.12722 12.0836 8.11342C12.4827 8.09872 12.7521 8.34412 12.7561 8.7454C12.7628 9.37604 12.7583 10.0067 12.7583 10.6378C12.7583 11.3651 12.7583 12.0924 12.7583 12.8197Z" fill="black"/>
</svg>
