<svg width="20" height="20" viewBox="0 0 20 20" fill="none" xmlns="http://www.w3.org/2000/svg">
<path d="M9.96318 16.8858C7.88882 16.8858 5.81445 16.8873 3.74009 16.8858C2.6839 16.8843 2.01306 16.2209 2.00635 15.1715C2.00114 14.4507 2.00114 13.7307 2.00635 13.0099C2.01083 12.4367 2.3373 12.07 2.83446 12.064C3.34951 12.0588 3.68046 12.427 3.68493 13.0248C3.6894 13.6211 3.69611 14.2174 3.68195 14.8137C3.67524 15.0932 3.75425 15.2154 4.05761 15.2147C8.02 15.2072 11.9824 15.2072 15.9448 15.2147C16.2496 15.2147 16.3264 15.0902 16.3197 14.8129C16.3055 14.2174 16.3122 13.6204 16.3167 13.0241C16.3212 12.427 16.6529 12.0588 17.1679 12.0648C17.6643 12.0707 17.9908 12.4375 17.9945 13.0114C17.9998 13.7568 18.0042 14.5021 17.9931 15.2475C17.9796 16.2046 17.2917 16.8836 16.3346 16.8851C14.2103 16.8895 12.0867 16.8866 9.96244 16.8866L9.96318 16.8858Z" fill="#003DA5"/>
<path d="M10.8412 5.2044C10.8412 5.68889 10.8412 6.08468 10.8412 6.48122C10.8412 8.57944 10.8412 10.6784 10.8412 12.7766C10.8412 13.153 10.7108 13.4594 10.3567 13.6308C10.0474 13.7806 9.7485 13.7374 9.4824 13.5294C9.21407 13.3192 9.15817 13.0204 9.15817 12.6954C9.16189 10.659 9.15966 8.62267 9.15966 6.58632C9.15966 6.15326 9.15966 5.72094 9.15966 5.19844C8.65728 5.63448 8.21378 6.01983 7.77029 6.40445C7.6391 6.51849 7.51388 6.63998 7.37524 6.74433C6.95932 7.05963 6.4808 7.02012 6.17818 6.6534C5.87928 6.29115 5.92773 5.79921 6.31234 5.45634C6.92429 4.91147 7.54519 4.37704 8.16161 3.83665C8.55367 3.49303 8.94126 3.1442 9.33706 2.80431C9.7977 2.40926 10.2084 2.40852 10.6698 2.80878C11.6634 3.67192 12.6517 4.54027 13.6416 5.40789C13.9092 5.64268 14.0716 5.91996 13.9911 6.29264C13.9181 6.63029 13.7042 6.83452 13.3807 6.92919C13.0594 7.0231 12.7956 6.89788 12.56 6.69365C12.0726 6.27102 11.5881 5.84393 11.1021 5.41907C11.0387 5.36391 10.9724 5.31173 10.8405 5.20365L10.8412 5.2044Z" fill="#003DA5"/>
</svg>
