<svg width="20" height="20" viewBox="0 0 20 20" fill="none" xmlns="http://www.w3.org/2000/svg">
<circle opacity="0.15" cx="10" cy="10" r="9.5" transform="matrix(1 0 0 -1 0 20)" fill="#F6BE00" stroke="#F6BE00"/>
<path d="M13.6362 8.4739C13.629 8.37182 13.6 8.2933 13.5129 8.24619C13.4259 8.19907 13.3461 8.15196 13.2519 8.23834C13.1141 8.36397 12.969 8.48175 12.824 8.60739C12.6499 8.75658 12.4831 8.91362 12.309 9.06282C12.0697 9.28268 11.8304 9.50254 11.5911 9.7224C11.3807 9.91085 11.1704 10.0993 10.9601 10.2956C10.7715 10.4684 10.5902 10.6411 10.4017 10.8139C10.2784 10.9238 10.1551 11.0416 10.0318 11.1436C10.01 11.1594 9.95928 11.1515 9.93753 11.1358C9.72721 10.9395 9.51689 10.7432 9.30657 10.5469C9.03098 10.2956 8.75539 10.0522 8.4798 9.80092C8.23322 9.58106 7.99389 9.35335 7.75456 9.13349C7.48623 8.89007 7.22514 8.64665 6.9568 8.40323C6.88428 8.33256 6.8045 8.26974 6.71748 8.21478C6.60869 8.13626 6.43463 8.20693 6.39112 8.34041C6.31134 8.57598 6.41288 8.64665 6.58693 8.81155C6.84802 9.05496 7.1091 9.30623 7.37744 9.54965C7.51524 9.67529 7.66028 9.79307 7.79808 9.9187C7.97214 10.0757 8.14619 10.2485 8.3275 10.4055C8.50156 10.5626 8.67561 10.7118 8.84967 10.8688C9.089 11.0887 9.32107 11.3085 9.55315 11.5284C9.64743 11.6148 9.74171 11.7012 9.84324 11.7797C9.94478 11.8582 10.1333 11.8111 10.2566 11.6933C10.4162 11.5441 10.5757 11.3949 10.7353 11.2457C11.0689 10.9395 11.4025 10.6254 11.7361 10.3192C11.9609 10.115 12.1858 9.92656 12.4106 9.7224C12.5266 9.61247 12.6354 9.49469 12.7587 9.38476C12.8965 9.25912 13.0415 9.14134 13.1793 9.0157C13.3171 8.89007 13.4549 8.76443 13.5855 8.63094C13.6217 8.60739 13.6217 8.53672 13.6362 8.4739Z" fill="#F6BE00" stroke="#F6BE00" stroke-width="1.09758"/>
</svg>
