<svg width="34" height="34" viewBox="0 0 34 34" fill="none" xmlns="http://www.w3.org/2000/svg">
<circle cx="17" cy="17" r="16" transform="matrix(-4.37114e-08 -1 -1 4.37114e-08 34 34)" fill="#F6BE00" stroke="#F6BE00" stroke-width="2"/>
<path d="M14.4052 10.8184C14.2317 10.8307 14.0982 10.88 14.0181 11.028C13.938 11.1759 13.8579 11.3115 14.0048 11.4718C14.2184 11.706 14.4186 11.9526 14.6322 12.1992C14.8858 12.4951 15.1528 12.7787 15.4064 13.0746C15.7802 13.4814 16.1539 13.8883 16.5277 14.2951C16.8481 14.6527 17.1684 15.0102 17.5021 15.3678C17.7958 15.6883 18.0895 15.9965 18.3832 16.3171C18.57 16.5267 18.7703 16.7363 18.9438 16.9459C18.9705 16.9829 18.9572 17.0692 18.9305 17.1062C18.5967 17.4637 18.263 17.8212 17.9293 18.1788C17.5021 18.6473 17.0883 19.1158 16.6612 19.5843C16.2874 20.0035 15.9003 20.4103 15.5265 20.8172C15.1127 21.2734 14.6989 21.7172 14.2851 22.1734C14.165 22.2967 14.0582 22.4323 13.9647 22.5802C13.8312 22.7652 13.9514 23.0611 14.1783 23.135C14.5788 23.2707 14.6989 23.0981 14.9792 22.8022C15.393 22.3583 15.8202 21.9145 16.234 21.4583C16.4476 21.224 16.6478 20.9775 16.8614 20.7432C17.1284 20.4473 17.4221 20.1514 17.689 19.8432C17.956 19.5473 18.2096 19.2514 18.4766 18.9555C18.8504 18.5487 19.2241 18.1541 19.5979 17.7596C19.7447 17.5993 19.8916 17.439 20.0251 17.2664C20.1585 17.0938 20.0785 16.7733 19.8782 16.5637C19.6246 16.2924 19.371 16.0212 19.1173 15.75C18.5967 15.1828 18.0628 14.6157 17.5422 14.0486C17.1951 13.6664 16.8748 13.2842 16.5277 12.902C16.3408 12.7047 16.1406 12.5198 15.9537 12.3102C15.7401 12.0759 15.5399 11.8293 15.3263 11.5951C15.1127 11.3608 14.8991 11.1266 14.6722 10.9047C14.6322 10.843 14.512 10.843 14.4052 10.8184Z" fill="white" stroke="white" stroke-width="2"/>
</svg>
