<svg width="24" height="21" viewBox="0 0 24 21" fill="none" xmlns="http://www.w3.org/2000/svg">
<path d="M22.8417 18.973L13.1763 2.05858C12.6562 1.14838 11.3438 1.14838 10.8237 2.05858L1.1583 18.973C0.64218 19.8762 1.29435 21 2.33463 21H21.6654C22.7056 21 23.3578 19.8762 22.8417 18.973Z" fill="#F6BE00"/>
<path d="M13.4048 7.91162L13.1293 14.2883H11.3733L11.0977 7.91162H13.4048ZM11.04 16.275C11.04 15.9673 11.1511 15.711 11.3733 15.5059C11.5955 15.2966 11.8839 15.1919 12.2385 15.1919C12.5931 15.1919 12.8793 15.2966 13.0972 15.5059C13.3194 15.711 13.4305 15.9673 13.4305 16.275C13.4305 16.5826 13.3194 16.8411 13.0972 17.0504C12.8793 17.2555 12.5931 17.358 12.2385 17.358C11.8839 17.358 11.5955 17.2555 11.3733 17.0504C11.1511 16.8411 11.04 16.5826 11.04 16.275Z" fill="white"/>
</svg>
