<svg width="19" height="21" viewBox="0 0 19 21" fill="none" xmlns="http://www.w3.org/2000/svg">
<g clip-path="url(#clip0_1355_1114)">
<path d="M0.00234498 10.5104C0.00234498 8.16925 -0.000106476 5.82729 0.00316213 3.48615C0.00561359 1.42203 1.40294 0.0222432 3.46135 0.0206089C6.70136 0.0181574 9.94219 0.0655523 13.1814 0.000180085C14.765 -0.0316889 16.6665 1.07555 16.696 3.44366C16.7156 4.99543 16.7017 6.54721 16.6976 8.0998C16.6976 8.2477 16.6772 8.39969 16.6404 8.54351C16.5366 8.948 16.1591 9.22992 15.7709 9.20785C15.3681 9.18497 15.0044 8.84259 14.9677 8.4144C14.9415 8.11695 14.9554 7.81624 14.9554 7.51635C14.9546 6.19583 14.9571 4.87531 14.9546 3.55479C14.9522 2.39117 14.336 1.72519 13.183 1.71947C9.94301 1.70394 6.703 1.70313 3.46299 1.71947C2.368 1.72519 1.7535 2.37809 1.75269 3.47144C1.7486 8.15454 1.7486 12.8376 1.75269 17.5207C1.7535 18.655 2.37944 19.2833 3.52182 19.3005C4.32508 19.3128 5.12834 19.3005 5.9316 19.3046C6.53793 19.3079 6.91382 19.6404 6.9081 20.1585C6.90238 20.6758 6.53058 20.9936 5.91526 20.9961C5.04418 20.9994 4.17227 21.001 3.30119 20.9961C1.46178 20.9863 0.0146023 19.5465 0.00561359 17.6989C-0.00582654 15.303 0.00316213 12.9071 0.00234498 10.5112V10.5104Z" fill="white"/>
<path d="M16.3569 11.1282C17.4217 11.1649 18.1898 11.6593 18.6335 12.6317C19.0429 13.5298 18.8664 14.6019 18.1587 15.3193C16.6879 16.8115 15.1974 18.2848 13.7167 19.7671C13.5377 19.9461 13.3269 20.0556 13.085 20.1209C12.1004 20.3873 11.1198 20.6676 10.1343 20.9266C9.23461 21.1636 8.70346 20.6308 8.95678 19.7418C9.23706 18.7612 9.54268 17.788 9.83685 16.8115C9.90958 16.5712 10.042 16.371 10.2193 16.1945C11.6656 14.7539 13.1071 13.3091 14.5551 11.871C15.0495 11.3799 15.6484 11.1216 16.3569 11.1265V11.1282ZM11.0495 18.896C11.6354 18.6754 12.2728 18.7228 12.701 18.3281C13.6088 17.4897 14.4595 16.5892 15.3396 15.7197C15.4899 15.571 15.4964 15.4599 15.342 15.3161C15.1238 15.1118 14.9048 14.9059 14.7095 14.6803C14.5142 14.4556 14.372 14.4957 14.1808 14.6918C13.5067 15.3823 12.8546 16.1014 12.1249 16.7281C11.4646 17.296 11.2301 18.0241 11.0495 18.896ZM17.0915 13.6728C17.0842 13.0305 16.5056 12.675 16.0031 12.9382C15.7661 13.0624 15.677 13.2127 15.9156 13.4325C16.1338 13.6336 16.3447 13.8444 16.5457 14.0626C16.7769 14.3134 16.9183 14.1925 17.0237 13.9555C17.0719 13.8477 17.0801 13.7226 17.0915 13.672V13.6728Z" fill="white"/>
<path d="M8.34801 6.61587C6.96049 6.61587 5.57378 6.62159 4.18626 6.61341C3.5497 6.60933 3.1452 6.10269 3.30455 5.53886C3.41568 5.14663 3.72538 4.92681 4.20505 4.92518C5.78297 4.92109 7.36008 4.92273 8.938 4.92273C10.0665 4.92273 11.1958 4.92191 12.3243 4.92273C12.9968 4.92354 13.4021 5.23733 13.4095 5.75786C13.4176 6.29146 13.0033 6.61423 12.3047 6.61505C10.9858 6.61587 9.66608 6.61505 8.3472 6.61505L8.34801 6.61587Z" fill="white"/>
<path d="M8.32352 9.88438C6.936 9.88438 5.54929 9.88274 4.16177 9.88519C3.8014 9.88519 3.52684 9.74056 3.36504 9.4186C3.21223 9.11298 3.24083 8.80982 3.44185 8.53281C3.61346 8.29583 3.85452 8.19287 4.14706 8.19287C6.93518 8.19451 9.7233 8.19042 12.5114 8.19614C13.0352 8.19696 13.4185 8.5802 13.4095 9.05252C13.4005 9.52483 13.0181 9.88029 12.4853 9.88274C11.0978 9.88928 9.71105 9.88519 8.32352 9.88438Z" fill="white"/>
<path d="M6.68685 13.1534C5.87052 13.1534 5.05418 13.1575 4.23703 13.1518C3.63642 13.1485 3.26299 12.8061 3.27443 12.2864C3.28587 11.7814 3.64868 11.4627 4.23621 11.4611C5.86888 11.457 7.50237 11.457 9.13504 11.4611C9.73728 11.4627 10.1091 11.8043 10.0968 12.3264C10.0854 12.8314 9.72258 13.1477 9.13586 13.1518C8.31953 13.1567 7.50319 13.1534 6.68604 13.1534H6.68685Z" fill="white"/>
</g>
<defs>
<clipPath id="clip0_1355_1114">
<rect width="18.8509" height="21" fill="white"/>
</clipPath>
</defs>
</svg>
