<svg width="18" height="18" viewBox="0 0 18 18" fill="none" xmlns="http://www.w3.org/2000/svg">
<g opacity="0.3">
<path fill-rule="evenodd" clip-rule="evenodd" d="M18 9C18 13.9725 13.957 18 9 18C4.04303 18 0 13.957 0 9C0 4.04303 4.04303 0 9 0C13.957 0 18 4.02754 18 9ZM16.7304 8.9998C16.7304 4.7399 13.2605 1.27002 9.00065 1.27002C4.74075 1.27002 1.27087 4.7399 1.27087 8.9998C1.27087 13.2597 4.74075 16.7296 9.00065 16.7296C13.2605 16.7296 16.7304 13.2597 16.7304 8.9998Z" fill="#434DF4"/>
<path d="M5.69282 12.3078C5.8142 12.4292 5.96593 12.4898 6.13284 12.4898C6.29974 12.4898 6.45147 12.4292 6.57285 12.3078L9.00054 9.88008L11.4282 12.3078C11.5496 12.4292 11.7013 12.4898 11.8682 12.4898C12.0351 12.4898 12.1869 12.4292 12.3083 12.3078C12.551 12.065 12.551 11.6705 12.3083 11.4277L9.88057 9.00005L12.3083 6.57237C12.551 6.3296 12.551 5.9351 12.3083 5.69233C12.0655 5.44956 11.671 5.44956 11.4282 5.69233L9.00054 8.12001L6.57285 5.69233C6.33009 5.44956 5.93559 5.44956 5.69282 5.69233C5.45005 5.9351 5.45005 6.3296 5.69282 6.57237L8.1205 9.00005L5.69282 11.4277C5.45005 11.6705 5.45005 12.065 5.69282 12.3078Z" fill="#434DF4"/>
</g>
</svg>
