<svg width="28" height="28" viewBox="0 0 28 28" fill="none" xmlns="http://www.w3.org/2000/svg">
<path d="M1.01574 18.735C1.01574 17.353 1.00967 15.97 1.01676 14.5881C1.0289 12.3148 2.79127 10.5463 5.05241 10.5261C6.27454 10.515 6.25734 10.515 6.2796 9.30194C6.30085 8.15771 6.17337 7.00944 6.37268 5.87128C6.82895 3.27324 9.35213 0.822911 12.8465 1.01008C15.6166 1.15879 18.167 3.46445 18.4523 6.28709C18.5586 7.33925 18.4797 8.40963 18.4908 9.47089C18.5039 10.689 18.333 10.5322 19.5268 10.519C20.6255 10.5069 21.5876 10.8286 22.4 11.5611C23.2528 12.331 23.7253 13.2931 23.7465 14.4535C23.7597 15.1617 23.7587 15.8699 23.7465 16.5781C23.7354 17.2569 23.3176 17.6818 22.6924 17.6778C22.0692 17.6737 21.6685 17.2468 21.6564 16.5588C21.6463 16.0024 21.6614 15.446 21.6513 14.8895C21.626 13.4428 20.8268 12.6355 19.376 12.6274C17.1503 12.6142 14.9256 12.6233 12.6998 12.6233C10.3223 12.6233 7.94587 12.6213 5.56838 12.6233C3.88997 12.6254 3.114 13.3953 3.11198 15.0636C3.10894 17.525 3.10894 19.9865 3.11198 22.4479C3.114 24.1182 3.88896 24.8892 5.56534 24.8912C8.0096 24.8942 10.4539 24.8952 12.8991 24.8892C13.3068 24.8881 13.6741 24.9549 13.9311 25.3039C14.1708 25.6297 14.2083 25.9909 14.0535 26.3571C13.8886 26.7486 13.58 26.9793 13.1521 26.9803C10.3203 26.9854 7.48656 27.0319 4.65583 26.9611C2.73664 26.9136 1.05115 25.0682 1.02283 23.1359C1.00158 21.6699 1.01878 20.203 1.01878 18.736H1.01676L1.01574 18.735ZM12.3599 10.5251C13.5547 10.5251 14.7495 10.522 15.9454 10.5281C16.2175 10.5291 16.4057 10.4816 16.3945 10.1467C16.3531 8.90333 16.4755 7.65692 16.3086 6.41557C16.0637 4.58845 14.3631 3.14981 12.4044 3.12149C10.462 3.09316 8.7097 4.56214 8.45576 6.42063C8.29288 7.6114 8.4244 8.80823 8.36673 10C8.34549 10.4391 8.52658 10.5392 8.92721 10.5322C10.0714 10.5119 11.2157 10.5251 12.3609 10.5251H12.3599Z" fill="white"/>
<path d="M19.4711 26.994C18.9177 27.0112 18.2692 26.6743 17.7178 26.1441C16.698 25.1628 15.6893 24.1693 14.6888 23.1677C14.1829 22.6609 14.1728 22.0437 14.627 21.5986C15.0813 21.1524 15.6731 21.1737 16.1992 21.6795C17.1593 22.6012 18.1103 23.5329 19.0654 24.4607C19.6329 25.012 19.8717 24.9908 20.3421 24.3352C21.8344 22.2542 23.3236 20.1691 24.8158 18.088C24.9332 17.9241 25.0495 17.7541 25.1912 17.6135C25.5756 17.2341 26.1604 17.1997 26.5772 17.5144C26.9768 17.8158 27.1023 18.3601 26.8767 18.8316C26.8332 18.9226 26.7795 19.0086 26.7209 19.0906C25.0829 21.379 23.4531 23.6726 21.801 25.9509C21.2962 26.6469 20.5789 26.9879 19.47 26.995L19.4711 26.994Z" fill="white"/>
<path d="M10.4918 19.599C9.89798 19.5909 9.42754 19.1144 9.43968 18.5347C9.45283 17.949 9.92833 17.5018 10.5303 17.5099C11.1231 17.518 11.5946 17.9945 11.5825 18.5742C11.5693 19.16 11.0938 19.6071 10.4918 19.599Z" fill="white"/>
<path d="M6.71246 17.5107C7.31948 17.5087 7.76564 17.9549 7.76159 18.5619C7.75856 19.1669 7.30532 19.608 6.69729 19.5989C6.11253 19.5898 5.68154 19.1578 5.67345 18.573C5.66536 17.965 6.10646 17.5138 6.71246 17.5107Z" fill="white"/>
<path d="M15.3495 18.5976C15.3303 19.1955 14.8598 19.6244 14.2508 19.5992C13.6539 19.5739 13.231 19.0984 13.2624 18.4883C13.2927 17.9116 13.747 17.4989 14.3348 17.512C14.9367 17.5262 15.3687 17.9885 15.3495 18.5986V18.5976Z" fill="white"/>
<path d="M19.1937 18.568C19.1876 19.1719 18.7323 19.611 18.1233 19.5989C17.5213 19.5867 17.0873 19.1254 17.1055 18.5164C17.1227 17.9357 17.5648 17.5107 18.1506 17.5107C18.7566 17.5107 19.1997 17.9609 19.1937 18.568Z" fill="white"/>
</svg>
