<svg width="19" height="22" viewBox="0 0 19 22" fill="none" xmlns="http://www.w3.org/2000/svg">
<g clip-path="url(#clip0_1355_1104)">
<path d="M0.00247296 10.2032C0.00247296 8.08552 -0.00483875 5.96878 0.00521485 3.85205C0.0152684 1.91536 1.19154 0.43017 2.99753 0.0572733C3.21871 0.0115752 3.45086 0.00334951 3.67843 0.00334951C6.78499 -0.000306341 9.89155 -0.00304823 12.9981 0.00334951C15.0399 0.00700536 16.6576 1.61101 16.6713 3.65006C16.6841 5.47707 16.675 7.305 16.6722 9.13292C16.6722 9.28373 16.6722 9.44276 16.6284 9.58442C16.5178 9.94178 16.26 10.1511 15.8844 10.1483C15.5316 10.1456 15.2858 9.95001 15.1605 9.61641C15.0783 9.39706 15.0865 9.16765 15.0865 8.93916C15.0865 7.23371 15.0911 5.52734 15.0847 3.82189C15.0792 2.41256 14.221 1.53972 12.8044 1.53424C9.84951 1.52236 6.89558 1.52327 3.94074 1.53424C2.45646 1.53972 1.59368 2.42627 1.59277 3.91054C1.59094 8.09832 1.59094 12.287 1.59277 16.4748C1.59277 18.0495 2.43087 18.8986 4.01934 18.9132C5.35921 18.926 6.69999 18.9196 8.03986 18.9151C8.3497 18.9142 8.612 18.9891 8.79205 19.2569C9.12017 19.7459 8.80851 20.4258 8.20803 20.4341C6.54828 20.4569 4.88395 20.5127 3.22968 20.4131C1.38895 20.3006 0.0161824 18.6061 0.00521485 16.5991C-0.00575271 14.4668 0.00247296 12.3345 0.00247296 10.2032Z" fill="white"/>
<path d="M14.159 16.7309C16.5609 16.7355 18.5616 18.6585 18.6584 21.0567C18.6795 21.5795 18.3842 21.9624 17.9346 21.9962C17.4429 22.0328 17.1193 21.7129 17.0782 21.1481C16.9539 19.4719 15.7657 18.3221 14.1517 18.3157C12.512 18.3093 11.3193 19.4527 11.1886 21.1554C11.1457 21.7166 10.8175 22.0355 10.3249 21.9953C9.87525 21.9588 9.58461 21.5758 9.60746 21.0503C9.71348 18.6246 11.7132 16.7254 14.159 16.73V16.7309Z" fill="white"/>
<path d="M16.688 13.1428C16.688 14.574 15.5757 15.69 14.1454 15.6927C12.6958 15.6955 11.5506 14.5549 11.5643 13.1218C11.5771 11.7152 12.7278 10.5535 14.1207 10.5426C15.5254 10.5316 16.688 11.7088 16.6889 13.1419L16.688 13.1428ZM14.1371 14.107C14.7056 14.107 15.1599 13.6537 15.1452 13.1026C15.1315 12.5926 14.6471 12.1292 14.1298 12.131C13.6116 12.1329 13.129 12.6008 13.1217 13.109C13.1135 13.6647 13.5641 14.107 14.1371 14.107Z" fill="white"/>
<path d="M8.37094 5.17886C7.12429 5.17886 5.87765 5.17704 4.631 5.17886C4.24988 5.17886 3.93822 5.05731 3.7801 4.68898C3.60736 4.28592 3.80295 3.82894 4.2188 3.67814C4.38606 3.61782 4.57525 3.59405 4.75439 3.59314C7.14166 3.58765 9.52893 3.58948 11.9162 3.5904C12.0076 3.5904 12.099 3.59131 12.1895 3.60319C12.6876 3.66808 13.0221 4.01448 12.9928 4.43124C12.9627 4.86446 12.6181 5.16972 12.1118 5.17429C11.1238 5.18435 10.1349 5.17795 9.14689 5.17795C8.88824 5.17795 8.62959 5.17795 8.37185 5.17795L8.37094 5.17886Z" fill="white"/>
<path d="M8.3793 7.5004C9.59579 7.5004 10.8114 7.49766 12.0278 7.50132C12.6201 7.50314 13.0012 7.82486 12.9948 8.29738C12.9884 8.74248 12.6192 9.07425 12.0443 9.07699C9.5967 9.08795 7.14911 9.08521 4.70243 9.07882C4.3076 9.0779 3.9347 8.98468 3.77476 8.55694C3.56729 8.00491 3.94292 7.51046 4.59458 7.50406C5.85585 7.49218 7.11803 7.5004 8.3793 7.49949V7.5004Z" fill="white"/>
<path d="M6.24889 12.947C5.70051 12.947 5.15304 12.9552 4.60467 12.9442C4.07091 12.9342 3.75194 12.6563 3.73183 12.2103C3.7099 11.7314 4.0115 11.3859 4.55531 11.374C5.68131 11.3503 6.80823 11.3503 7.93423 11.3759C8.46342 11.3878 8.80615 11.7643 8.78056 12.2067C8.75589 12.6253 8.39213 12.9369 7.8931 12.9451C7.34564 12.9543 6.79726 12.947 6.24889 12.947Z" fill="white"/>
</g>
<defs>
<clipPath id="clip0_1355_1104">
<rect width="18.6604" height="22" fill="white"/>
</clipPath>
</defs>
</svg>
