<svg width="28" height="28" viewBox="0 0 28 28" fill="none" xmlns="http://www.w3.org/2000/svg">
<circle cx="14" cy="14" r="14" fill="#F6BE00"/>
<path d="M10.1316 10.0396H7V21.0001H10.1316V10.0396Z" fill="#232323"/>
<path d="M17.5687 10.0396C15.3836 10.0396 15.0078 10.8365 14.8293 11.6053V10.0396H11.6978V21.0001H14.8293V14.7369C14.8293 13.7215 15.3797 13.1711 16.3951 13.1711C17.3863 13.1711 17.9609 13.7098 17.9609 14.7369V21.0001H21.0925V15.5198C21.0925 12.3882 20.6846 10.0396 17.5687 10.0396Z" fill="#232323"/>
<path d="M8.56579 9.25658C9.43055 9.25658 10.1316 8.55555 10.1316 7.69079C10.1316 6.82603 9.43055 6.125 8.56579 6.125C7.70103 6.125 7 6.82603 7 7.69079C7 8.55555 7.70103 9.25658 8.56579 9.25658Z" fill="#232323"/>
</svg>
