<svg width="28" height="28" viewBox="0 0 28 28" fill="none" xmlns="http://www.w3.org/2000/svg">
<circle cx="14" cy="14" r="14" fill="#F6BE00"/>
<path d="M17.3765 6.125C17.3765 7.02623 17.3765 7.88454 17.4176 8.78576C17.2118 8.78576 17.0059 8.78576 16.8412 8.78576C16.4706 8.78576 16.1412 8.78576 15.7706 8.78576C15.3588 8.78576 15.1118 9.00034 15.1118 9.4295C15.1118 10.0303 15.1118 10.5882 15.1118 11.189C15.8941 11.189 16.6765 11.189 17.5 11.189C17.4176 12.1332 17.3353 13.0344 17.2529 13.9785C16.5529 13.9785 15.8529 13.9785 15.1529 13.9785C15.1941 16.5964 15.1941 19.2142 15.2353 21.8321C14.2059 21.8321 13.1353 21.8321 12.1059 21.875C12.0647 19.2572 12.0647 16.6822 12.0235 14.0644C11.5294 14.0644 11.0353 14.0644 10.5412 14.0644C10.5412 13.1202 10.5412 12.219 10.5 11.2749C10.9941 11.2749 11.4882 11.2749 11.9824 11.2749C11.9824 11.189 11.9824 11.1032 11.9824 11.0603C11.9824 10.4166 11.9412 9.77282 11.9824 9.12909C12.0647 8.09911 12.4353 7.19789 13.3412 6.63999C13.7941 6.33958 14.3294 6.21083 14.8647 6.21083C15.6882 6.16792 16.5118 6.21083 17.3353 6.16791C17.3353 6.125 17.3353 6.125 17.3765 6.125Z" fill="#232323"/>
</svg>
