<svg width="28" height="28" viewBox="0 0 28 28" fill="none" xmlns="http://www.w3.org/2000/svg">
<path d="M11.3181 1.0018C13.51 1.0018 15.7008 0.997751 17.8927 1.00281C19.695 1.00787 21.0105 2.32846 21.0135 4.13983C21.0186 7.34263 21.0237 10.5454 21.0054 13.7482C21.0034 14.1834 21.135 14.3534 21.561 14.4556C24.6434 15.1953 26.5974 17.8385 26.4689 21.0494C26.3525 23.9506 24.0089 26.5189 20.9963 26.9318C19.0048 27.205 17.2137 26.6606 15.7514 25.2368C15.4327 24.9261 15.1149 24.8057 14.6818 24.8077C11.5124 24.8209 8.34402 24.8158 5.17462 24.8138C4.59983 24.8138 4.03011 24.7733 3.48771 24.5537C2.27237 24.0619 1.53061 22.9296 1.5296 21.5199C1.52555 16.7841 1.52758 12.0471 1.52758 7.31025C1.52758 6.28211 1.5215 5.25398 1.5296 4.22585C1.54276 2.33351 2.86739 1.00585 4.74353 1.0018C6.93438 0.997751 9.12625 1.0018 11.3181 1.0018ZM3.18919 12.8941C3.18919 15.7266 3.18817 18.559 3.18919 21.3914C3.18919 22.6088 3.73665 23.1633 4.93883 23.1643C7.85525 23.1674 10.7717 23.1583 13.6891 23.1724C14.1202 23.1745 14.2406 23.1148 14.0898 22.6442C12.8998 18.9304 15.0866 15.1862 18.9046 14.3969C19.3074 14.3139 19.4278 14.1611 19.4258 13.7695C19.4137 10.6507 19.4228 7.53186 19.4167 4.41306C19.4147 3.20075 18.8176 2.59662 17.6164 2.5946C13.3845 2.58954 9.15357 2.58954 4.92163 2.5946C3.76498 2.59561 3.18919 3.18658 3.18817 4.34627C3.18615 7.1959 3.18817 10.0445 3.18817 12.8941H3.18919ZM24.8154 20.6628C24.8245 17.9943 22.7824 15.931 20.1291 15.9279C17.4707 15.9239 15.4185 17.9761 15.4165 20.6375C15.4145 23.2676 17.5274 25.3967 20.1261 25.3835C22.7176 25.3704 24.8063 23.2676 24.8154 20.6628Z" fill="white"/>
<path d="M7.78788 5.9691C8.47904 5.9691 16.0494 5.96202 16.7405 5.97112C17.3072 5.97821 17.6594 6.27471 17.6877 6.74222C17.7171 7.23403 17.3801 7.60237 16.784 7.61148C15.3349 7.63577 7.00565 7.63476 5.55655 7.61148C5.0182 7.60237 4.65288 7.20569 4.67211 6.75943C4.69134 6.3 5.05665 5.98124 5.61322 5.97213C6.33777 5.95999 7.06333 5.9691 7.78788 5.9691Z" fill="white"/>
<path d="M7.74425 9.00507C8.45261 9.00507 16.0391 8.99798 16.7475 9.00709C17.3111 9.01519 17.6643 9.31776 17.6876 9.78629C17.7119 10.2599 17.3891 10.6323 16.8254 10.6434C15.3591 10.6717 7.01363 10.6697 5.54732 10.6464C5.01099 10.6373 4.6477 10.2346 4.67098 9.78831C4.69527 9.32788 5.05855 9.01721 5.61917 9.00911C6.32753 8.99798 7.03488 9.00608 7.74324 9.00608L7.74425 9.00507Z" fill="white"/>
<path d="M7.77225 12.0409C8.46341 12.0409 11.5741 12.0348 12.2653 12.0429C12.8563 12.05 13.2195 12.3627 13.2286 12.8504C13.2378 13.321 12.9089 13.6731 12.3371 13.6822C10.888 13.7075 7.01836 13.7055 5.56824 13.6842C5.02584 13.6762 4.65952 13.2916 4.66964 12.8453C4.67976 12.3849 5.04608 12.054 5.59658 12.0449C6.32113 12.0317 7.04669 12.0419 7.77124 12.0409H7.77225Z" fill="white"/>
<path d="M19.8238 22.9272C19.3928 22.9323 17.3901 21.5024 17.2525 21.0834C17.1473 20.7637 17.2242 20.4803 17.4691 20.2536C17.7483 19.9956 18.0782 19.949 18.4021 20.1383C18.7208 20.3245 19.0264 20.54 19.3148 20.7718C19.5759 20.9822 19.7459 20.9316 19.9402 20.6807C20.4351 20.0411 20.943 19.4107 21.4571 18.7863C21.8801 18.2733 22.3152 18.1862 22.717 18.5091C23.1157 18.8298 23.1248 19.3044 22.7271 19.8023C22.0026 20.7121 21.2699 21.6157 20.5443 22.5244C20.3571 22.7592 20.1426 22.9323 19.8238 22.9262V22.9272Z" fill="white"/>
</svg>
