<svg width="28" height="28" viewBox="0 0 28 28" fill="none" xmlns="http://www.w3.org/2000/svg">
<path d="M3.43367 14.009C3.43367 10.6183 3.43367 7.22862 3.43469 3.83792C3.43671 2.07727 4.5089 1.00913 6.2736 1.00812C9.62987 1.0061 12.9872 1.0142 16.3444 1.00002C16.8011 0.997997 17.1423 1.13569 17.4632 1.45967C19.6724 3.68707 21.8917 5.90534 24.118 8.11654C24.4268 8.42331 24.5676 8.75033 24.5666 9.18973C24.5564 14.2165 24.5625 19.2434 24.5585 24.2702C24.5574 25.8942 23.4488 26.9967 21.8218 26.9977C16.6097 27.0008 11.3966 27.0008 6.1845 26.9977C4.53218 26.9977 3.43772 25.8942 3.4357 24.2317C3.43165 20.8238 3.43469 17.4169 3.43469 14.009H3.43367ZM5.18623 14.0171C5.18623 17.3906 5.1842 20.7641 5.18825 24.1376C5.18926 24.9769 5.50819 25.3019 6.35358 25.3019C11.4472 25.3069 16.5419 25.3069 21.6355 25.3019C22.4829 25.3019 22.8039 24.9779 22.8049 24.1406C22.8089 19.5522 22.8019 14.9647 22.815 10.3763C22.816 9.90958 22.6631 9.76784 22.2005 9.77392C20.4297 9.7972 18.6579 9.78607 16.8871 9.78202C16.067 9.77999 15.7856 9.50056 15.7835 8.69464C15.7805 6.90666 15.7684 5.11867 15.7916 3.33068C15.7977 2.86293 15.6884 2.68474 15.1801 2.68879C12.2795 2.71208 9.37777 2.6979 6.47609 2.70094C5.47275 2.70094 5.18623 2.99151 5.18521 3.99688C5.18319 7.33695 5.18521 10.677 5.18521 14.0161L5.18623 14.0171ZM17.4794 4.02927C17.4794 5.24624 17.4865 6.42473 17.4753 7.60322C17.4723 7.94948 17.6454 8.0325 17.9461 8.03048C19.0416 8.02339 20.1371 8.02744 21.2336 8.02541C21.3135 8.02541 21.4057 8.0325 21.4239 7.96973C20.1118 6.65861 18.8168 5.3647 17.4794 4.02826V4.02927Z" fill="white"/>
<path d="M17.4055 16.8312V18.0944H15.9391L15.4884 21.135H14.2125L14.6568 18.0944H13.4444L13.0001 21.135H11.7305L12.1748 18.0944H10.7466V16.8312H12.3716L12.5621 15.6378H11.1465V14.3746H12.7398L13.1524 11.5625H14.3902L13.9967 14.3746H15.2091L15.6217 11.5625H16.8976L16.485 14.3746H17.7673V15.6378H16.3009L16.1359 16.8312H17.4055ZM15.0314 15.6378H13.7999L13.6348 16.8312H14.8346L15.0314 15.6378Z" fill="white"/>
</svg>
